<svg width="36" height="36" viewBox="0 0 36 36" fill="none" xmlns="http://www.w3.org/2000/svg">
<path d="M16.5131 6.66791H6.10774C5.31926 6.66791 4.56307 6.97696 4.00553 7.52706C3.44799 8.07717 3.13477 8.82327 3.13477 9.60124V30.1346C3.13477 30.9125 3.44799 31.6586 4.00553 32.2088C4.56307 32.7589 5.31926 33.0679 6.10774 33.0679H26.9185C27.707 33.0679 28.4632 32.7589 29.0208 32.2088C29.5783 31.6586 29.8915 30.9125 29.8915 30.1346V19.8679M27.6618 4.46791C28.2532 3.88443 29.0552 3.55664 29.8915 3.55664C30.7278 3.55664 31.5299 3.88443 32.1212 4.46791C32.7126 5.05139 33.0448 5.84275 33.0448 6.66791C33.0448 7.49307 32.7126 8.28443 32.1212 8.86791L17.9996 22.8012L12.0537 24.2679L13.5402 18.4012L27.6618 4.46791Z" stroke="#1E1E1E" stroke-width="3" stroke-linecap="round" stroke-linejoin="round"/>
</svg>
