<svg width="24" height="29" viewBox="0 0 24 29" fill="none" xmlns="http://www.w3.org/2000/svg">
<path d="M14.5 2H4.5C3.83696 2 3.20107 2.26339 2.73223 2.73223C2.26339 3.20107 2 3.83696 2 4.5V24.5C2 25.163 2.26339 25.7989 2.73223 26.2678C3.20107 26.7366 3.83696 27 4.5 27H19.5C20.163 27 20.7989 26.7366 21.2678 26.2678C21.7366 25.7989 22 25.163 22 24.5V9.5M14.5 2L22 9.5M14.5 2V9.5H22M17 15.75H7M17 20.75H7M9.5 10.75H7" stroke="#1E1E1E" stroke-width="3" stroke-linecap="round" stroke-linejoin="round"/>
</svg>
