<svg width="37" height="37" viewBox="0 0 37 37" fill="none" xmlns="http://www.w3.org/2000/svg">
<g clip-path="url(#clip0_997_4862)">
<path d="M2 6.49968V15.4997M2 15.4997H11M2 15.4997L8.96 8.95968C11.0314 6.89181 13.7187 5.55313 16.617 5.14535C19.5154 4.73757 22.4677 5.28278 25.0293 6.69883C27.5908 8.11487 29.6227 10.325 30.8189 12.9963C32.0151 15.6676 32.3108 18.6553 31.6613 21.5092C31.0119 24.3631 29.4525 26.9287 27.2182 28.8193C24.9839 30.7099 22.1956 31.8232 19.2736 31.9914C16.3515 32.1596 13.454 31.3735 11.0175 29.7517C8.581 28.13 6.73759 25.7602 5.765 22.9997" stroke="#1E1E1E" stroke-width="4" stroke-linecap="round" stroke-linejoin="round"/>
</g>
<defs>
<clipPath id="clip0_997_4862">
<rect width="36" height="36" fill="white" transform="translate(0.5 0.5)"/>
</clipPath>
</defs>
</svg>
