<svg width="34" height="32" viewBox="0 0 34 32" fill="none" xmlns="http://www.w3.org/2000/svg">
<path d="M2 3.49968V12.4997M2 12.4997H11M2 12.4997L8.96 5.95968C11.0314 3.89181 13.7187 2.55313 16.617 2.14535C19.5154 1.73757 22.4677 2.28278 25.0293 3.69883C27.5908 5.11487 29.6227 7.32504 30.8189 9.99633C32.0151 12.6676 32.3108 15.6553 31.6613 18.5092C31.0119 21.3631 29.4525 23.9287 27.2182 25.8193C24.9839 27.7099 22.1956 28.8232 19.2736 28.9914C16.3515 29.1596 13.454 28.3735 11.0175 26.7517C8.581 25.13 6.73759 22.7602 5.765 19.9997" stroke="#1E1E1E" stroke-width="4" stroke-linecap="round" stroke-linejoin="round"/>
</svg>
