<svg width="30" height="30" viewBox="0 0 30 30" fill="none" xmlns="http://www.w3.org/2000/svg">
<path d="M18.3747 7.87565C18.1457 8.10931 18.0174 8.42346 18.0174 8.75065C18.0174 9.07784 18.1457 9.39199 18.3747 9.62565L20.3747 11.6256C20.6084 11.8547 20.9225 11.983 21.2497 11.983C21.5769 11.983 21.891 11.8547 22.1247 11.6256L26.8372 6.91315C27.4657 8.30213 27.6561 9.84969 27.3828 11.3496C27.1095 12.8495 26.3856 14.2305 25.3075 15.3085C24.2295 16.3865 22.8485 17.1104 21.3486 17.3837C19.8487 17.657 18.3012 17.4667 16.9122 16.8381L8.2747 25.4756C7.77742 25.9729 7.10296 26.2523 6.3997 26.2523C5.69644 26.2523 5.02198 25.9729 4.5247 25.4756C4.02742 24.9784 3.74805 24.3039 3.74805 23.6006C3.74805 22.8974 4.02742 22.2229 4.5247 21.7256L13.1622 13.0881C12.5337 11.6992 12.3433 10.1516 12.6166 8.65172C12.8899 7.15183 13.6138 5.77084 14.6918 4.6928C15.7699 3.61476 17.1509 2.89086 18.6508 2.61757C20.1507 2.34429 21.6982 2.5346 23.0872 3.16315L18.3747 7.87565Z" stroke="#1E1E1E" stroke-width="3" stroke-linecap="round" stroke-linejoin="round"/>
</svg>
