<svg width="36" height="35" viewBox="0 0 36 35" fill="none" xmlns="http://www.w3.org/2000/svg">
<path d="M5.22949 9.00039H8.06733M8.06733 9.00039H30.77M8.06733 9.00039V28.6004C8.06733 29.343 8.36632 30.0552 8.89851 30.5803C9.43071 31.1054 10.1525 31.4004 10.9052 31.4004H25.0944C25.847 31.4004 26.5688 31.1054 27.101 30.5803C27.6332 30.0552 27.9322 29.343 27.9322 28.6004V9.00039M12.3241 9.00039V6.20039C12.3241 5.45778 12.6231 4.74559 13.1553 4.22049C13.6875 3.69539 14.4093 3.40039 15.1619 3.40039H20.8376C21.5902 3.40039 22.3121 3.69539 22.8443 4.22049C23.3765 4.74559 23.6754 5.45778 23.6754 6.20039V9.00039M15.1619 16.0004V24.4004M20.8376 16.0004V24.4004" stroke="#1E1E1E" stroke-width="3" stroke-linecap="round" stroke-linejoin="round"/>
</svg>
