<svg width="48" height="49" viewBox="0 0 48 49" fill="none" xmlns="http://www.w3.org/2000/svg">
<path d="M34.041 4.02843C36.683 4.0364 39.2146 5.10019 41.0828 6.98746C42.951 8.87473 44.0041 11.4321 44.012 14.1011V34.2443C44.0041 36.9133 42.951 39.4707 41.0828 41.358C39.2146 43.2453 36.683 44.3091 34.041 44.317H14.1013C11.4592 44.3091 8.92766 43.2453 7.05945 41.358C5.19125 39.4707 4.13821 36.9133 4.13032 34.2443V14.1011C4.13821 11.4321 5.19125 8.87473 7.05945 6.98746C8.92766 5.10019 11.4592 4.0364 14.1013 4.02843H34.041ZM34.041 0H14.1013C6.42383 0 0.142578 6.34534 0.142578 14.1011V34.2443C0.142578 42.0001 6.42383 48.3455 14.1013 48.3455H34.041C41.7185 48.3455 47.9997 42.0001 47.9997 34.2443V14.1011C47.9997 6.34534 41.7185 0 34.041 0Z" fill="black"/>
<path d="M37.0327 14.1018C36.4411 14.1018 35.8628 13.9246 35.3709 13.5925C34.879 13.2605 34.4957 12.7886 34.2693 12.2365C34.0429 11.6844 33.9836 11.0768 34.0991 10.4907C34.2145 9.90457 34.4993 9.36618 34.9177 8.9436C35.336 8.52102 35.8689 8.23324 36.4491 8.11665C37.0293 8.00007 37.6307 8.0599 38.1773 8.2886C38.7238 8.5173 39.191 8.90458 39.5196 9.40148C39.8483 9.89838 40.0237 10.4826 40.0237 11.0802C40.0246 11.4772 39.9478 11.8705 39.7978 12.2375C39.6477 12.6045 39.4275 12.9379 39.1495 13.2187C38.8716 13.4994 38.5416 13.722 38.1783 13.8735C37.815 14.0251 37.4257 14.1026 37.0327 14.1018ZM24.0717 16.1155C25.6493 16.1155 27.1915 16.588 28.5032 17.4735C29.815 18.3589 30.8373 19.6174 31.4411 21.0898C32.0448 22.5621 32.2028 24.1823 31.895 25.7454C31.5872 27.3085 30.8275 28.7443 29.712 29.8712C28.5964 30.9981 27.1752 31.7656 25.6279 32.0765C24.0806 32.3874 22.4767 32.2278 21.0192 31.618C19.5617 31.0081 18.3159 29.9753 17.4395 28.6501C16.563 27.325 16.0952 25.7671 16.0952 24.1734C16.0974 22.037 16.9385 19.9888 18.4339 18.4781C19.9293 16.9674 21.9569 16.1177 24.0717 16.1155ZM24.0717 12.087C21.7054 12.087 19.3922 12.7959 17.4247 14.1239C15.4572 15.452 13.9237 17.3396 13.0182 19.5481C12.1126 21.7566 11.8757 24.1868 12.3373 26.5313C12.799 28.8758 13.9384 31.0294 15.6117 32.7197C17.2849 34.41 19.4167 35.5612 21.7376 36.0275C24.0584 36.4939 26.4641 36.2545 28.6502 35.3397C30.8364 34.4249 32.705 32.8758 34.0196 30.8882C35.3343 28.9006 36.036 26.5638 36.036 24.1734C36.036 20.9679 34.7755 17.8937 32.5317 15.627C30.288 13.3604 27.2448 12.087 24.0717 12.087Z" fill="black"/>
</svg>
