<svg width="41" height="41" viewBox="0 0 41 41" fill="none" xmlns="http://www.w3.org/2000/svg">
<path d="M37.6295 0.0605469H4.08658C2.25373 0.0605469 0.652344 1.39279 0.652344 3.22259V37.1831C0.652344 39.0229 2.25373 40.6624 4.08658 40.6624H37.6197C39.4624 40.6624 40.844 39.012 40.844 37.1831V3.22259C40.8547 1.39279 39.4624 0.0605469 37.6295 0.0605469ZM13.1109 33.9042H7.35304V15.8191H13.1109V33.9042ZM10.4311 13.0694H10.3898C8.54713 13.0694 7.35394 11.6837 7.35394 9.94908C7.35394 8.18272 8.57853 6.82963 10.4625 6.82963C12.3465 6.82963 13.4993 8.17275 13.5406 9.94908C13.5397 11.6837 12.3465 13.0694 10.4311 13.0694ZM34.154 33.9042H28.3962V24.0156C28.3962 21.6466 27.5583 20.0279 25.4752 20.0279C23.8836 20.0279 22.9417 21.1155 22.5227 22.1749C22.3657 22.5556 22.3235 23.074 22.3235 23.6033V33.9042H16.5657V15.8191H22.3235V18.3359C23.1615 17.1305 24.4704 15.3959 27.5161 15.3959C31.2958 15.3959 34.1549 17.9127 34.1549 23.3386L34.154 33.9042Z" fill="black"/>
</svg>
