<svg width="83" height="83" viewBox="0 0 83 83" fill="none" xmlns="http://www.w3.org/2000/svg">
<g opacity="0.5">
<rect x="6.68601" y="14.2679" width="68.1053" height="68.1053" rx="18" transform="rotate(-6.43171 6.68601 14.2679)" fill="black" stroke="black" stroke-width="4"/>
<rect x="0.78855" y="7.99444" width="68.1053" height="68.1053" rx="18" transform="rotate(-6.43171 0.78855 7.99444)" fill="white" stroke="black" stroke-width="4"/>
<path d="M40.3432 51.1091C38.6353 51.3016 36.993 51.1461 35.4162 50.6424C33.8395 50.1388 32.4161 49.3689 31.1462 48.3328C29.8734 47.2708 28.8275 46.0128 28.0084 44.559C27.1865 43.0792 26.6778 41.4724 26.4823 39.7386C26.2752 37.9013 26.4047 36.144 26.8707 34.4666C27.3339 32.7634 28.0662 31.2395 29.0678 29.8949C30.0922 28.5215 31.3414 27.3979 32.8153 26.5242C34.3151 25.6475 35.9707 25.1071 37.7822 24.9029C39.2054 24.7425 40.6663 24.6826 42.1646 24.7234C43.6601 24.7382 45.2046 24.8393 46.7981 25.0265C46.9592 25.0608 47.2251 25.9087 47.5959 27.5704C47.8073 28.5162 47.9695 29.2579 48.0826 29.7955C48.2215 30.3302 48.2393 30.7212 48.1362 30.9687C48.0301 31.1903 47.7313 31.3289 47.2396 31.3843L46.6054 31.3378C46.4235 30.8866 46.1611 30.4183 45.8181 29.9328C45.4751 29.4474 44.9724 28.9406 44.3101 28.4125C43.6737 27.8815 42.8176 27.4932 41.7416 27.2476C40.6627 26.9761 39.4893 26.9118 38.2213 27.0548C33.5892 27.5769 31.664 31.3056 32.4458 38.2409C32.6879 40.3887 33.2187 42.3075 34.0381 43.9972C34.8805 45.6581 35.9667 46.9246 37.2968 47.7967C38.6527 48.6659 40.1975 49.0028 41.9313 48.8073C43.8463 48.5915 45.4237 47.7061 46.6636 46.1511C47.0309 45.6904 47.289 45.1896 47.4377 44.6487C47.6093 44.079 47.7235 43.5813 47.7804 43.1556C47.8631 42.727 47.9562 42.5068 48.0597 42.4952C49.1207 42.3756 49.7175 42.4393 49.8502 42.6864C49.8706 42.8676 49.8497 43.263 49.7874 43.8728C49.7481 44.4538 49.6772 45.1038 49.5748 45.8229C49.4954 46.5133 49.3943 47.1274 49.2715 47.6654C49.1458 48.1775 49.0211 48.4667 48.8976 48.5331C46.0671 49.9266 43.2157 50.7853 40.3432 51.1091Z" fill="black"/>
</g>
</svg>
