<?xml version="1.0" encoding="UTF-8"?>
<svg version="1.1" xmlns="http://www.w3.org/2000/svg" width="280" height="280">
<path d="M0 0 C1.16126801 0.69222417 2.32346564 1.38289111 3.48657227 2.07202148 C6.73468419 4.00366283 9.96330771 5.96615496 13.1875 7.9375 C13.94192383 8.39769531 14.69634766 8.85789062 15.47363281 9.33203125 C18.05617247 10.91193786 20.62971788 12.50300359 23.18359375 14.12890625 C25.86507558 15.7433745 28.57237661 17.24839302 31.32421875 18.73828125 C37.14412083 21.89119717 42.85707942 25.20793059 48.5625 28.5625 C55.58810405 32.67999386 62.62514419 36.7733029 69.70556641 40.79589844 C73.87346523 43.16383217 78.03234828 45.5472814 82.1875 47.9375 C82.87537598 48.33195312 83.56325195 48.72640625 84.27197266 49.1328125 C98.7341283 57.4823992 98.7341283 57.4823992 100.78809738 63.77854443 C101.25484064 66.30150723 101.31974184 68.66398554 101.32794189 71.23078918 C101.33365204 72.30318344 101.33936218 73.3755777 101.34524536 74.48046875 C101.34692215 76.23774292 101.34692215 76.23774292 101.34863281 78.03051758 C101.35359772 79.26831467 101.35856262 80.50611176 101.36367798 81.78141785 C101.37577594 85.17412054 101.38324193 88.56676169 101.38768864 91.95947862 C101.39062344 94.08090049 101.39472901 96.20231702 101.39919281 98.32373619 C101.41286096 104.96643416 101.42253099 111.60911983 101.4263947 118.25183088 C101.43087411 125.91015709 101.44841929 133.56830471 101.4773953 141.22657663 C101.49903684 147.15283598 101.5091003 153.07904518 101.51043582 159.00534362 C101.51148207 162.54182318 101.51735131 166.0781347 101.53525543 169.61457253 C101.55485158 173.5618728 101.55043727 177.50895114 101.54394531 181.45629883 C101.5531601 182.62174225 101.56237488 183.78718567 101.5718689 184.98794556 C101.53471046 192.19960501 101.06914284 197.50344664 96.28735352 203.2019043 C94.13741172 204.97889956 92.02842007 206.35536608 89.58984375 207.70703125 C88.71118652 208.19993652 87.8325293 208.6928418 86.92724609 209.20068359 C86.00250488 209.71195801 85.07776367 210.22323242 84.125 210.75 C77.5470587 214.44093732 71.08232919 218.18073929 64.77172852 222.31225586 C62.27798322 223.88059431 59.75310425 225.29780022 57.15625 226.6875 C50.97480412 230.03281382 44.89191317 233.53597169 38.8125 237.0625 C36.51454296 238.39230969 34.21642138 239.72182894 31.91796875 241.05078125 C30.78407715 241.70643066 29.65018555 242.36208008 28.48193359 243.03759766 C22.8567397 246.28165123 17.21260004 249.49235684 11.56933594 252.70483398 C5.14673193 256.36907616 -1.2316462 260.10475515 -7.57446289 263.90551758 C-12.95374958 267.10554807 -16.51322364 268.35745176 -22.8125 267.9375 C-28.96738889 265.63624243 -34.55703016 262.38096732 -40.25 259.125 C-41.25208496 258.55531494 -42.25416992 257.98562988 -43.28662109 257.39868164 C-51.54374723 252.69215827 -59.75555279 247.90876408 -67.95751953 243.10693359 C-74.49184319 239.28292357 -81.04704966 235.49844188 -87.625 231.75 C-95.8411936 227.0672794 -104.04447201 222.36387483 -112.21484375 217.6015625 C-115.31603012 215.79567463 -118.43383564 214.02427586 -121.56640625 212.2734375 C-123.0859449 211.41147138 -124.60547644 210.54949272 -126.125 209.6875 C-126.81239258 209.31157715 -127.49978516 208.9356543 -128.20800781 208.54833984 C-133.17164836 205.70687117 -138.57429077 201.853451 -140.37496567 196.1586504 C-140.87766714 193.60667789 -140.94462953 191.24616958 -140.95294189 188.64421082 C-140.95865204 187.57181656 -140.96436218 186.4994223 -140.97024536 185.39453125 C-140.97136322 184.22301514 -140.97248108 183.05149902 -140.97363281 181.84448242 C-140.97859772 180.60668533 -140.98356262 179.36888824 -140.98867798 178.09358215 C-141.00077594 174.70087946 -141.00824193 171.30823831 -141.01268864 167.91552138 C-141.01562344 165.79409951 -141.01972901 163.67268298 -141.02419281 161.55126381 C-141.03786096 154.90856584 -141.04753099 148.26588017 -141.0513947 141.62316912 C-141.05587411 133.96484291 -141.07341929 126.30669529 -141.1023953 118.64842337 C-141.12403684 112.72216402 -141.1341003 106.79595482 -141.13543582 100.86965638 C-141.13648207 97.33317682 -141.14235131 93.7968653 -141.16025543 90.26042747 C-141.17985158 86.3131272 -141.17543727 82.36604886 -141.16894531 78.41870117 C-141.1781601 77.25325775 -141.18737488 76.08781433 -141.1968689 74.88705444 C-141.1654859 68.79628468 -140.86254093 64.26955251 -137.8125 58.9375 C-134.10187113 55.34590107 -130.12875733 52.80300649 -125.625 50.3125 C-124.38499423 49.61924464 -123.14543519 48.92518981 -121.90625 48.23046875 C-121.24625 47.86228027 -120.58625 47.4940918 -119.90625 47.11474609 C-116.12455605 44.98842517 -112.37669836 42.80366566 -108.625 40.625 C-106.99876051 39.68218369 -105.37245774 38.73947653 -103.74609375 37.796875 C-102.93124512 37.32443359 -102.11639648 36.85199219 -101.27685547 36.36523438 C-98.84314511 34.95525437 -96.40813438 33.54754897 -93.97265625 32.140625 C-85.82735802 27.43401013 -77.69595302 22.70571709 -69.59301758 17.92651367 C-62.19849415 13.56788003 -54.78043391 9.24969494 -47.3605957 4.93432617 C-41.84055103 1.71980154 -36.34595349 -1.53042838 -30.88647461 -4.84692383 C-19.59960703 -11.46226387 -10.17515943 -6.22025534 0 0 Z " fill="#FDFDFD" transform="translate(159.8125,10.0625)"/>
<path d="M0 0 C1.16126801 0.69222417 2.32346564 1.38289111 3.48657227 2.07202148 C6.73468419 4.00366283 9.96330771 5.96615496 13.1875 7.9375 C13.94192383 8.39769531 14.69634766 8.85789062 15.47363281 9.33203125 C18.05617247 10.91193786 20.62971788 12.50300359 23.18359375 14.12890625 C25.86507558 15.7433745 28.57237661 17.24839302 31.32421875 18.73828125 C37.14412083 21.89119717 42.85707942 25.20793059 48.5625 28.5625 C55.58810405 32.67999386 62.62514419 36.7733029 69.70556641 40.79589844 C73.87346523 43.16383217 78.03234828 45.5472814 82.1875 47.9375 C82.87537598 48.33195312 83.56325195 48.72640625 84.27197266 49.1328125 C98.7341283 57.4823992 98.7341283 57.4823992 100.78809738 63.77854443 C101.25484064 66.30150723 101.31974184 68.66398554 101.32794189 71.23078918 C101.33365204 72.30318344 101.33936218 73.3755777 101.34524536 74.48046875 C101.34692215 76.23774292 101.34692215 76.23774292 101.34863281 78.03051758 C101.35359772 79.26831467 101.35856262 80.50611176 101.36367798 81.78141785 C101.37577594 85.17412054 101.38324193 88.56676169 101.38768864 91.95947862 C101.39062344 94.08090049 101.39472901 96.20231702 101.39919281 98.32373619 C101.41286096 104.96643416 101.42253099 111.60911983 101.4263947 118.25183088 C101.43087411 125.91015709 101.44841929 133.56830471 101.4773953 141.22657663 C101.49903684 147.15283598 101.5091003 153.07904518 101.51043582 159.00534362 C101.51148207 162.54182318 101.51735131 166.0781347 101.53525543 169.61457253 C101.55485158 173.5618728 101.55043727 177.50895114 101.54394531 181.45629883 C101.5531601 182.62174225 101.56237488 183.78718567 101.5718689 184.98794556 C101.53471046 192.19960501 101.06914284 197.50344664 96.28735352 203.2019043 C94.13741172 204.97889956 92.02842007 206.35536608 89.58984375 207.70703125 C88.71118652 208.19993652 87.8325293 208.6928418 86.92724609 209.20068359 C86.00250488 209.71195801 85.07776367 210.22323242 84.125 210.75 C77.5470587 214.44093732 71.08232919 218.18073929 64.77172852 222.31225586 C62.27798322 223.88059431 59.75310425 225.29780022 57.15625 226.6875 C50.97480412 230.03281382 44.89191317 233.53597169 38.8125 237.0625 C36.51454296 238.39230969 34.21642138 239.72182894 31.91796875 241.05078125 C30.78407715 241.70643066 29.65018555 242.36208008 28.48193359 243.03759766 C22.8567397 246.28165123 17.21260004 249.49235684 11.56933594 252.70483398 C5.14673193 256.36907616 -1.2316462 260.10475515 -7.57446289 263.90551758 C-12.95374958 267.10554807 -16.51322364 268.35745176 -22.8125 267.9375 C-28.96738889 265.63624243 -34.55703016 262.38096732 -40.25 259.125 C-41.25208496 258.55531494 -42.25416992 257.98562988 -43.28662109 257.39868164 C-51.54374723 252.69215827 -59.75555279 247.90876408 -67.95751953 243.10693359 C-74.49184319 239.28292357 -81.04704966 235.49844188 -87.625 231.75 C-95.8411936 227.0672794 -104.04447201 222.36387483 -112.21484375 217.6015625 C-115.31603012 215.79567463 -118.43383564 214.02427586 -121.56640625 212.2734375 C-123.0859449 211.41147138 -124.60547644 210.54949272 -126.125 209.6875 C-126.81239258 209.31157715 -127.49978516 208.9356543 -128.20800781 208.54833984 C-133.17164836 205.70687117 -138.57429077 201.853451 -140.37496567 196.1586504 C-140.87766714 193.60667789 -140.94462953 191.24616958 -140.95294189 188.64421082 C-140.95865204 187.57181656 -140.96436218 186.4994223 -140.97024536 185.39453125 C-140.97136322 184.22301514 -140.97248108 183.05149902 -140.97363281 181.84448242 C-140.97859772 180.60668533 -140.98356262 179.36888824 -140.98867798 178.09358215 C-141.00077594 174.70087946 -141.00824193 171.30823831 -141.01268864 167.91552138 C-141.01562344 165.79409951 -141.01972901 163.67268298 -141.02419281 161.55126381 C-141.03786096 154.90856584 -141.04753099 148.26588017 -141.0513947 141.62316912 C-141.05587411 133.96484291 -141.07341929 126.30669529 -141.1023953 118.64842337 C-141.12403684 112.72216402 -141.1341003 106.79595482 -141.13543582 100.86965638 C-141.13648207 97.33317682 -141.14235131 93.7968653 -141.16025543 90.26042747 C-141.17985158 86.3131272 -141.17543727 82.36604886 -141.16894531 78.41870117 C-141.1781601 77.25325775 -141.18737488 76.08781433 -141.1968689 74.88705444 C-141.1654859 68.79628468 -140.86254093 64.26955251 -137.8125 58.9375 C-134.10187113 55.34590107 -130.12875733 52.80300649 -125.625 50.3125 C-124.38499423 49.61924464 -123.14543519 48.92518981 -121.90625 48.23046875 C-121.24625 47.86228027 -120.58625 47.4940918 -119.90625 47.11474609 C-116.12455605 44.98842517 -112.37669836 42.80366566 -108.625 40.625 C-106.99876051 39.68218369 -105.37245774 38.73947653 -103.74609375 37.796875 C-102.93124512 37.32443359 -102.11639648 36.85199219 -101.27685547 36.36523438 C-98.84314511 34.95525437 -96.40813438 33.54754897 -93.97265625 32.140625 C-85.82735802 27.43401013 -77.69595302 22.70571709 -69.59301758 17.92651367 C-62.19849415 13.56788003 -54.78043391 9.24969494 -47.3605957 4.93432617 C-41.84055103 1.71980154 -36.34595349 -1.53042838 -30.88647461 -4.84692383 C-19.59960703 -11.46226387 -10.17515943 -6.22025534 0 0 Z M-39.625 13.9375 C-40.63256348 14.51346924 -41.64012695 15.08943848 -42.67822266 15.68286133 C-45.72669509 17.42803615 -48.77014129 19.18169338 -51.8125 20.9375 C-53.5221188 21.92060182 -55.23175314 22.90367661 -56.94140625 23.88671875 C-64.95387147 28.50390591 -72.9330774 33.17636392 -80.89453125 37.88085938 C-85.33688662 40.4995541 -89.79777246 43.08415219 -94.26953125 45.65234375 C-95.41091553 46.3081543 -96.5522998 46.96396484 -97.72827148 47.63964844 C-99.97257826 48.92772118 -102.21811261 50.21365829 -104.46508789 51.49707031 C-107.59221171 53.29194681 -110.70553379 55.10797452 -113.8125 56.9375 C-114.83375977 57.53256348 -115.85501953 58.12762695 -116.90722656 58.74072266 C-117.87885742 59.32772949 -118.85048828 59.91473633 -119.8515625 60.51953125 C-120.71217285 61.03362549 -121.5727832 61.54771973 -122.45947266 62.07739258 C-126.16634148 65.0077343 -128.4695706 67.67760435 -129.18369484 72.38366413 C-129.33354759 75.44193343 -129.35280044 78.47714644 -129.33007812 81.5390625 C-129.3370874 82.70072937 -129.34409668 83.86239624 -129.35131836 85.05926514 C-129.36890359 88.8939209 -129.35727278 92.72783691 -129.34375 96.5625 C-129.34644474 99.22998978 -129.35032105 101.89745722 -129.35534668 104.56494141 C-129.36261457 110.15340163 -129.35305816 115.74165009 -129.33398438 121.33007812 C-129.312217 127.78202346 -129.319269 134.23346311 -129.34129 140.68539619 C-129.3594687 146.23465349 -129.36199035 151.78375896 -129.35153532 157.33303642 C-129.34531381 160.6431228 -129.34600842 163.95292072 -129.35768127 167.26300049 C-129.36784188 170.95432704 -129.35235045 174.6446832 -129.33007812 178.3359375 C-129.33817505 179.4270282 -129.34627197 180.5181189 -129.35461426 181.64227295 C-129.28665295 187.72347485 -128.87796331 191.30835309 -124.8125 195.9375 C-122.91685961 197.64316904 -122.91685961 197.64316904 -120.79296875 198.90234375 C-119.60840088 199.64653564 -119.60840088 199.64653564 -118.39990234 200.40576172 C-113.69005711 203.19398299 -108.92117944 205.86358034 -104.125 208.5 C-95.0694572 213.52345934 -86.10313002 218.6668304 -77.20556641 223.96435547 C-68.90694277 228.89992342 -60.55023916 233.73136748 -52.17260742 238.53149414 C-47.30312084 241.32561792 -42.45133216 244.13461075 -37.66796875 247.07421875 C-36.51711792 247.77575073 -36.51711792 247.77575073 -35.34301758 248.49145508 C-33.96695973 249.33479509 -32.59750267 250.18906733 -31.23706055 251.05737305 C-26.82579608 253.75005433 -22.96051603 255.17580504 -17.8125 254.9375 C-10.89660153 253.11944046 -5.06351117 249.31080191 1.01269531 245.61791992 C4.01159491 243.79607578 7.02382325 241.99650512 10.03515625 240.1953125 C10.64287872 239.83121277 11.2506012 239.46711304 11.8767395 239.09197998 C17.42581102 235.77577508 23.04444646 232.59092709 28.6875 229.4375 C38.3855079 224.00467376 47.96756761 218.38894907 57.51196289 212.69213867 C62.49932652 209.71581461 67.48783165 206.74875741 72.53515625 203.875 C73.32229004 203.42406982 74.10942383 202.97313965 74.92041016 202.50854492 C76.33069574 201.70344833 77.74537329 200.90596671 79.16552734 200.1184082 C83.72665313 197.5029082 86.82517289 194.66215423 89.1875 189.9375 C89.28850022 188.3546942 89.32692752 186.76770774 89.33467102 185.18170166 C89.34182632 184.1779248 89.34898163 183.17414795 89.35635376 182.13995361 C89.35904266 181.03448181 89.36173157 179.92901001 89.36450195 178.79003906 C89.37435875 177.04841492 89.37435875 177.04841492 89.38441467 175.27160645 C89.40418334 171.41544537 89.41581819 167.5593233 89.42578125 163.703125 C89.42985678 162.38854057 89.4339323 161.07395615 89.43813133 159.71953583 C89.45718551 153.47995837 89.47141501 147.24039275 89.4797433 141.00079179 C89.4895115 133.80138851 89.51581874 126.60229304 89.55624419 119.40299821 C89.58642474 113.83687781 89.60121407 108.27084554 89.60452431 102.70464492 C89.60687302 99.38102547 89.61778581 96.05780965 89.64098549 92.73426056 C89.66527841 89.02343633 89.66442932 85.31341812 89.6574707 81.60253906 C89.67028076 80.50516418 89.68309082 79.40778931 89.69628906 78.27716064 C89.65454187 72.17450192 89.27792947 68.57763027 85.1875 63.9375 C83.25324494 62.21294217 83.25324494 62.21294217 81.09765625 60.9375 C80.30762207 60.44121094 79.51758789 59.94492188 78.70361328 59.43359375 C74.38198888 56.86393391 70.02075316 54.37801789 65.625 51.9375 C57.49804435 47.3849333 49.41314121 42.77015496 41.375 38.0625 C31.75682919 32.43073523 22.11568715 26.84063802 12.44873047 21.29296875 C7.60784119 18.51035823 2.78297086 15.7118337 -1.984375 12.8046875 C-2.75724854 12.33643555 -3.53012207 11.86818359 -4.32641602 11.38574219 C-5.71596775 10.53980594 -7.09991236 9.68454409 -8.47631836 8.81738281 C-20.30186132 1.63675189 -28.9853964 7.79278371 -39.625 13.9375 Z " fill="#DAEBFC" transform="translate(159.8125,10.0625)"/>
<path d="M0 0 C1.16126801 0.69222417 2.32346564 1.38289111 3.48657227 2.07202148 C6.73468419 4.00366283 9.96330771 5.96615496 13.1875 7.9375 C13.94192383 8.39769531 14.69634766 8.85789062 15.47363281 9.33203125 C18.05617247 10.91193786 20.62971788 12.50300359 23.18359375 14.12890625 C25.86507558 15.7433745 28.57237661 17.24839302 31.32421875 18.73828125 C37.14412083 21.89119717 42.85707942 25.20793059 48.5625 28.5625 C55.58810405 32.67999386 62.62514419 36.7733029 69.70556641 40.79589844 C73.87346523 43.16383217 78.03234828 45.5472814 82.1875 47.9375 C82.87537598 48.33195312 83.56325195 48.72640625 84.27197266 49.1328125 C98.7341283 57.4823992 98.7341283 57.4823992 100.78809738 63.77854443 C101.25484064 66.30150723 101.31974184 68.66398554 101.32794189 71.23078918 C101.33365204 72.30318344 101.33936218 73.3755777 101.34524536 74.48046875 C101.34692215 76.23774292 101.34692215 76.23774292 101.34863281 78.03051758 C101.35359772 79.26831467 101.35856262 80.50611176 101.36367798 81.78141785 C101.37577594 85.17412054 101.38324193 88.56676169 101.38768864 91.95947862 C101.39062344 94.08090049 101.39472901 96.20231702 101.39919281 98.32373619 C101.41286096 104.96643416 101.42253099 111.60911983 101.4263947 118.25183088 C101.43087411 125.91015709 101.44841929 133.56830471 101.4773953 141.22657663 C101.49903684 147.15283598 101.5091003 153.07904518 101.51043582 159.00534362 C101.51148207 162.54182318 101.51735131 166.0781347 101.53525543 169.61457253 C101.55485158 173.5618728 101.55043727 177.50895114 101.54394531 181.45629883 C101.5531601 182.62174225 101.56237488 183.78718567 101.5718689 184.98794556 C101.53471046 192.19960501 101.06914284 197.50344664 96.28735352 203.2019043 C94.13741172 204.97889956 92.02842007 206.35536608 89.58984375 207.70703125 C88.71118652 208.19993652 87.8325293 208.6928418 86.92724609 209.20068359 C86.00250488 209.71195801 85.07776367 210.22323242 84.125 210.75 C77.5470587 214.44093732 71.08232919 218.18073929 64.77172852 222.31225586 C62.27798322 223.88059431 59.75310425 225.29780022 57.15625 226.6875 C50.97480412 230.03281382 44.89191317 233.53597169 38.8125 237.0625 C36.51454296 238.39230969 34.21642138 239.72182894 31.91796875 241.05078125 C30.78407715 241.70643066 29.65018555 242.36208008 28.48193359 243.03759766 C22.8567397 246.28165123 17.21260004 249.49235684 11.56933594 252.70483398 C5.14673193 256.36907616 -1.2316462 260.10475515 -7.57446289 263.90551758 C-12.95374958 267.10554807 -16.51322364 268.35745176 -22.8125 267.9375 C-28.96738889 265.63624243 -34.55703016 262.38096732 -40.25 259.125 C-41.25208496 258.55531494 -42.25416992 257.98562988 -43.28662109 257.39868164 C-51.54374723 252.69215827 -59.75555279 247.90876408 -67.95751953 243.10693359 C-74.49184319 239.28292357 -81.04704966 235.49844188 -87.625 231.75 C-95.8411936 227.0672794 -104.04447201 222.36387483 -112.21484375 217.6015625 C-115.31603012 215.79567463 -118.43383564 214.02427586 -121.56640625 212.2734375 C-123.0859449 211.41147138 -124.60547644 210.54949272 -126.125 209.6875 C-126.81239258 209.31157715 -127.49978516 208.9356543 -128.20800781 208.54833984 C-133.17164836 205.70687117 -138.57429077 201.853451 -140.37496567 196.1586504 C-140.87766714 193.60667789 -140.94462953 191.24616958 -140.95294189 188.64421082 C-140.95865204 187.57181656 -140.96436218 186.4994223 -140.97024536 185.39453125 C-140.97136322 184.22301514 -140.97248108 183.05149902 -140.97363281 181.84448242 C-140.97859772 180.60668533 -140.98356262 179.36888824 -140.98867798 178.09358215 C-141.00077594 174.70087946 -141.00824193 171.30823831 -141.01268864 167.91552138 C-141.01562344 165.79409951 -141.01972901 163.67268298 -141.02419281 161.55126381 C-141.03786096 154.90856584 -141.04753099 148.26588017 -141.0513947 141.62316912 C-141.05587411 133.96484291 -141.07341929 126.30669529 -141.1023953 118.64842337 C-141.12403684 112.72216402 -141.1341003 106.79595482 -141.13543582 100.86965638 C-141.13648207 97.33317682 -141.14235131 93.7968653 -141.16025543 90.26042747 C-141.17985158 86.3131272 -141.17543727 82.36604886 -141.16894531 78.41870117 C-141.1781601 77.25325775 -141.18737488 76.08781433 -141.1968689 74.88705444 C-141.1654859 68.79628468 -140.86254093 64.26955251 -137.8125 58.9375 C-134.10187113 55.34590107 -130.12875733 52.80300649 -125.625 50.3125 C-124.38499423 49.61924464 -123.14543519 48.92518981 -121.90625 48.23046875 C-121.24625 47.86228027 -120.58625 47.4940918 -119.90625 47.11474609 C-116.12455605 44.98842517 -112.37669836 42.80366566 -108.625 40.625 C-106.99876051 39.68218369 -105.37245774 38.73947653 -103.74609375 37.796875 C-102.93124512 37.32443359 -102.11639648 36.85199219 -101.27685547 36.36523438 C-98.84314511 34.95525437 -96.40813438 33.54754897 -93.97265625 32.140625 C-85.82735802 27.43401013 -77.69595302 22.70571709 -69.59301758 17.92651367 C-62.19849415 13.56788003 -54.78043391 9.24969494 -47.3605957 4.93432617 C-41.84055103 1.71980154 -36.34595349 -1.53042838 -30.88647461 -4.84692383 C-19.59960703 -11.46226387 -10.17515943 -6.22025534 0 0 Z M-37.875 3.0625 C-39.11786776 3.79802165 -40.36186555 4.53163684 -41.60693359 5.26342773 C-44.13968563 6.75569752 -46.66594467 8.25809482 -49.18701172 9.77001953 C-53.44422249 12.32097116 -57.73343288 14.81573148 -62.02514648 17.30810547 C-64.96036546 19.0132834 -67.89067908 20.72665269 -70.8203125 22.44140625 C-77.13626739 26.13248111 -83.47350574 29.78617908 -89.8125 33.4375 C-93.05715051 35.30941376 -96.3015409 37.18177774 -99.54589844 39.05419922 C-101.75133063 40.32570175 -103.95773554 41.59551838 -106.16503906 42.86376953 C-109.425308 44.73773364 -112.68171765 46.61825451 -115.9375 48.5 C-116.91460937 49.05945312 -117.89171875 49.61890625 -118.8984375 50.1953125 C-130.01572872 56.31985681 -130.01572872 56.31985681 -137.8125 65.9375 C-138.25983222 68.56297142 -138.25983222 68.56297142 -138.20018005 71.35777283 C-138.21008469 72.43298691 -138.21998932 73.50820099 -138.23019409 74.61599731 C-138.22569244 75.7854892 -138.2211908 76.95498108 -138.21655273 78.15991211 C-138.22341599 79.39946152 -138.23027924 80.63901093 -138.23735046 81.91612244 C-138.25250274 85.30886865 -138.25411612 88.70106484 -138.24840808 92.09380412 C-138.24531422 94.92926787 -138.25141088 97.76468204 -138.25744683 100.60013872 C-138.27148628 107.2910037 -138.26993574 113.98174098 -138.25854492 120.67260742 C-138.24706485 127.56814307 -138.26113848 134.46328973 -138.2879414 141.35877413 C-138.31011508 147.28591138 -138.31673203 153.21292667 -138.31086498 159.14010245 C-138.30749807 162.67711902 -138.30989244 166.21388627 -138.32711601 169.75086784 C-138.34548906 173.69596417 -138.33138077 177.64058398 -138.31420898 181.58569336 C-138.32387695 182.75316101 -138.33354492 183.92062866 -138.34350586 185.12347412 C-138.28650841 191.37162615 -138.04951537 195.21034578 -133.8125 199.9375 C-130.52244 202.91310348 -127.00806387 205.09821293 -123.1484375 207.265625 C-122.04024658 207.89227051 -120.93205566 208.51891602 -119.7902832 209.16455078 C-119.20413239 209.49360413 -118.61798157 209.82265747 -118.0140686 210.16168213 C-114.8590797 211.93355316 -111.71254765 213.72029122 -108.56640625 215.5078125 C-107.59609718 216.05881119 -107.59609718 216.05881119 -106.60618591 216.62094116 C-100.06030853 220.34798475 -93.59117627 224.19885927 -87.125 228.0625 C-77.47923707 233.81718191 -67.74591303 239.38197157 -57.92480469 244.83129883 C-48.05952112 250.31896178 -38.34742687 256.0541892 -28.66235352 261.8527832 C-24.0592241 264.55196547 -20.08321107 264.69097007 -14.8125 263.9375 C-10.68132404 262.31323969 -6.98098369 260.10417699 -3.1875 257.8125 C-2.10283447 257.18085938 -1.01816895 256.54921875 0.09936523 255.8984375 C2.35962036 254.57928737 4.61440468 253.25072119 6.86376953 251.91308594 C10.00039501 250.04871298 13.15044545 248.21043277 16.30859375 246.3828125 C21.28636481 243.49950673 26.25149508 240.59531319 31.21240234 237.68310547 C36.15808334 234.78128214 41.11006414 231.89027537 46.0625 229 C47.03799805 228.43015381 48.01349609 227.86030762 49.01855469 227.27319336 C54.36522649 224.15342698 59.72130702 221.050731 65.08984375 217.96875 C65.66812927 217.63644882 66.24641479 217.30414764 66.84222412 216.96177673 C69.62525752 215.36266592 72.40964026 213.76602264 75.19677734 212.17407227 C78.20498148 210.44721108 81.19671226 208.69430904 84.1875 206.9375 C85.72156494 206.0710083 85.72156494 206.0710083 87.28662109 205.18701172 C88.26840332 204.60838379 89.25018555 204.02975586 90.26171875 203.43359375 C91.13787842 202.92884521 92.01403809 202.42409668 92.91674805 201.90405273 C96.62359546 198.69378976 97.96300859 195.06752327 98.46677494 190.28767872 C98.58489385 187.04828231 98.60420924 183.82138547 98.59155273 180.57983398 C98.59841599 179.34974609 98.60527924 178.1196582 98.61235046 176.85229492 C98.6274696 173.49478737 98.62912581 170.13783714 98.62340808 166.7803371 C98.62030843 163.97211151 98.626417 161.16393572 98.63244683 158.35571724 C98.64646912 151.73002223 98.6449489 145.10445623 98.63354492 138.47875977 C98.62205509 131.65248162 98.63615878 124.82659595 98.6629414 118.00036949 C98.68511395 112.1283929 98.69173263 106.25653939 98.68586498 100.38452393 C98.68249918 96.8821888 98.68488553 93.38010546 98.70211601 89.87780571 C98.72048771 85.97363818 98.706382 82.06995219 98.68920898 78.16577148 C98.69887695 77.01079666 98.70854492 75.85582184 98.71850586 74.66584778 C98.66118243 68.44785574 98.39553776 64.64735805 94.1875 59.9375 C87.49773915 54.07437397 79.21347825 50.02782505 71.4375 45.8125 C69.02752002 44.4926752 66.62071928 43.16713356 64.21484375 41.83984375 C63.61616989 41.50982864 63.01749603 41.17981354 62.40068054 40.83979797 C54.13837003 36.27063893 46.05097001 31.40841446 37.94287109 26.57324219 C32.09468049 23.10142958 26.21231623 19.68787467 20.33447266 16.26660156 C15.03108701 13.17951747 9.73218819 10.08521041 4.44140625 6.9765625 C2.79277588 6.00964478 2.79277588 6.00964478 1.11083984 5.02319336 C-1.00601213 3.78141547 -3.12162469 2.53752173 -5.23583984 1.29125977 C-6.66017334 0.45679321 -6.66017334 0.45679321 -8.11328125 -0.39453125 C-9.36878784 -1.13280151 -9.36878784 -1.13280151 -10.6496582 -1.88598633 C-21.01116658 -7.52230068 -28.84696043 -2.42424821 -37.875 3.0625 Z " fill="#9CC9F9" transform="translate(159.8125,10.0625)"/>
<path d="M0 0 C0.95261719 -0.00515625 1.90523437 -0.0103125 2.88671875 -0.015625 C5.3125 0.25 5.3125 0.25 7.3125 2.25 C3.3525 1.92 -0.6075 1.59 -4.6875 1.25 C-4.3575 2.57 -4.0275 3.89 -3.6875 5.25 C-3.0275 5.25 -2.3675 5.25 -1.6875 5.25 C-1.3575 4.26 -1.0275 3.27 -0.6875 2.25 C2.3125 3.25 2.3125 3.25 4.3125 5.25 C4.6425 4.59 4.9725 3.93 5.3125 3.25 C6.3025 3.58 7.2925 3.91 8.3125 4.25 C8.8075 5.735 8.8075 5.735 9.3125 7.25 C10.6325 6.26 11.9525 5.27 13.3125 4.25 C18.34768063 7.55883298 21.38705397 11.58505136 23.3125 17.25 C24.59834817 29.32122774 24.59834817 29.32122774 21.3125 34.25 C21.3125 33.26 21.3125 32.27 21.3125 31.25 C19.43369128 31.29768403 19.43369128 31.29768403 17.3125 32.25 C15.95971885 34.23689731 14.62681695 36.23745218 13.3125 38.25 C10.06666762 40.63027708 7.24176505 40.33185969 3.3125 40.25 C1.04683657 40.68941523 1.04683657 40.68941523 -0.6875 41.25 C-1.0175 40.59 -1.3475 39.93 -1.6875 39.25 C0.2925 38.755 0.2925 38.755 2.3125 38.25 C0.3325 38.25 -1.6475 38.25 -3.6875 38.25 C-4.0175 37.26 -4.3475 36.27 -4.6875 35.25 C-7.1625 35.745 -7.1625 35.745 -9.6875 36.25 C-9.0275 36.91 -8.3675 37.57 -7.6875 38.25 C-9.0075 38.91 -10.3275 39.57 -11.6875 40.25 C-12.65105244 39.17130607 -13.60811417 38.08681257 -14.5625 37 C-15.09617188 36.39671875 -15.62984375 35.7934375 -16.1796875 35.171875 C-17.6672487 33.27581254 -18.69072436 31.43709995 -19.6875 29.25 C-20.6775 29.25 -21.6675 29.25 -22.6875 29.25 C-23.0175 29.91 -23.3475 30.57 -23.6875 31.25 C-23.54700482 29.77031676 -23.39995174 28.29125484 -23.25 26.8125 C-23.16878906 25.98878906 -23.08757812 25.16507813 -23.00390625 24.31640625 C-22.6875 22.25 -22.6875 22.25 -21.6875 21.25 C-22.3475 20.92 -23.0075 20.59 -23.6875 20.25 C-23.13060623 14.40261547 -21.27644302 10.52480349 -16.8203125 6.609375 C-11.41126866 2.40460884 -7.00170481 -0.03820848 0 0 Z " fill="#F0F0F6" transform="translate(173.6875,80.75)"/>
<path d="M0 0 C1.16126801 0.69222417 2.32346564 1.38289111 3.48657227 2.07202148 C6.73468419 4.00366283 9.96330771 5.96615496 13.1875 7.9375 C13.94192383 8.39769531 14.69634766 8.85789062 15.47363281 9.33203125 C18.05617247 10.91193786 20.62971788 12.50300359 23.18359375 14.12890625 C25.86507558 15.7433745 28.57237661 17.24839302 31.32421875 18.73828125 C37.14412083 21.89119717 42.85707942 25.20793059 48.5625 28.5625 C55.58810405 32.67999386 62.62514419 36.7733029 69.70556641 40.79589844 C73.87346523 43.16383217 78.03234828 45.5472814 82.1875 47.9375 C82.87537598 48.33195312 83.56325195 48.72640625 84.27197266 49.1328125 C98.72748693 57.47856488 98.72748693 57.47856488 100.78935909 63.77560043 C101.25743966 66.31727137 101.31028933 68.6923821 101.30775452 71.27789307 C101.30981651 72.90165863 101.30981651 72.90165863 101.31192017 74.55822754 C101.30832489 75.74074097 101.30472961 76.92325439 101.30102539 78.14160156 C101.30117142 79.3906427 101.30131744 80.63968384 101.3014679 81.92657471 C101.30089074 85.34774003 101.29587653 88.76884495 101.28889394 92.18999958 C101.28264131 95.76678095 101.28205509 99.34356313 101.28086853 102.92034912 C101.27776085 109.69175661 101.26955504 116.46314795 101.25951904 123.23454833 C101.24834043 130.9442866 101.24284304 138.65402565 101.23782361 146.36377001 C101.22737197 162.22168936 101.20978341 178.0795926 101.1875 193.9375 C99.2075 194.9275 99.2075 194.9275 97.1875 195.9375 C97.19303076 194.94081834 97.19303076 194.94081834 97.19867325 193.92400169 C97.2870489 177.74893312 97.35322149 161.57394112 97.39474869 145.39868736 C97.41536525 137.57641295 97.44346834 129.7542998 97.48925781 121.93212891 C97.52915355 115.11352321 97.55493941 108.29503431 97.56385398 101.47631514 C97.56906417 97.8665131 97.58129056 94.25704517 97.61042023 90.64735031 C97.64269208 86.61549877 97.64345767 82.5842264 97.64160156 78.55224609 C97.66317322 76.76120956 97.66317322 76.76120956 97.68518066 74.93399048 C97.65379442 68.64329133 97.51882488 64.66495146 93.1875 59.9375 C90.42601917 57.7908224 90.42601917 57.7908224 87.2578125 56.03125 C86.68829865 55.6957312 86.11878479 55.3602124 85.53201294 55.01452637 C83.75830516 53.97466265 81.9742776 52.95470838 80.1875 51.9375 C79.1159668 51.31746094 78.04443359 50.69742188 76.94042969 50.05859375 C73.65637734 48.16938623 70.36080177 46.30170603 67.0625 44.4375 C57.50384206 39.01232887 48.00576104 33.49932052 38.5625 27.875 C26.49547579 20.68814577 14.35143061 13.647768 2.16845703 6.65966797 C-2.0119312 4.24456079 -6.16638919 1.78569945 -10.31860352 -0.67749023 C-15.02827919 -3.29305461 -19.52522964 -3.95264896 -24.8125 -3.0625 C-29.01707086 -1.23814627 -32.85367006 1.09672584 -36.75 3.5 C-38.79673962 4.73717987 -40.84732768 5.96802323 -42.90234375 7.19140625 C-43.79816162 7.74127197 -44.69397949 8.2911377 -45.61694336 8.85766602 C-46.7037439 9.39218384 -46.7037439 9.39218384 -47.8125 9.9375 C-48.4725 9.6075 -49.1325 9.2775 -49.8125 8.9375 C-46.47792909 4.0238598 -42.48520594 1.61643782 -37.4375 -1.25 C-36.695 -1.68763672 -35.9525 -2.12527344 -35.1875 -2.57617188 C-21.478155 -10.50869924 -13.18545124 -8.06050009 0 0 Z " fill="#9CC9F9" transform="translate(159.8125,10.0625)"/>
<path d="M0 0 C2.85660075 2.58454353 3.7793169 4.02899436 4.625 7.75 C3.83360621 11.86524768 1.95078004 14.31787506 -0.4765625 17.6796875 C-1.9582705 19.93644277 -2.83739106 21.94967319 -3.6875 24.5 C-4.120625 25.655 -4.55375 26.81 -5 28 C-8.45898178 29.15299393 -9.81862283 28.7445228 -13.3125 27.9375 C-17.83471823 27.03185683 -20.73294977 26.92413773 -25 29 C-27.80763162 23.97238059 -29.48051516 19.81823021 -30 14 C-30.66022108 7.93815216 -30.66022108 7.93815216 -32 2 C-22.6244008 -6.2036493 -10.43703066 -5.84702265 0 0 Z " fill="#F8F6E9" transform="translate(126,83)"/>
<path d="M0 0 C0.33 0 0.66 0 1 0 C1.53461846 7.12824612 1.59770823 12.45890833 -2.515625 18.4765625 C-5.14066023 21.1706776 -7.25766788 21.98453475 -11 22.0625 C-11.99 22.041875 -12.98 22.02125 -14 22 C-16.26566343 22.43941523 -16.26566343 22.43941523 -18 23 C-18.33 22.34 -18.66 21.68 -19 21 C-17.68 20.67 -16.36 20.34 -15 20 C-16.98 20 -18.96 20 -21 20 C-21.33 19.01 -21.66 18.02 -22 17 C-23.65 17.33 -25.3 17.66 -27 18 C-26.34 18.66 -25.68 19.32 -25 20 C-26.98 20.99 -26.98 20.99 -29 22 C-34.34954998 16.9122017 -35.77293239 13.37969719 -36 6 C-33.03 6.33 -30.06 6.66 -27 7 C-26.67 5.02 -26.34 3.04 -26 1 C-24.125 1.25 -24.125 1.25 -22 2 C-20.75 4.0625 -20.75 4.0625 -20 6 C-19.01 5.67 -18.02 5.34 -17 5 C-14.26134713 4.92948886 -11.54972412 4.90642235 -8.8125 4.9375 C-8.06291016 4.94201172 -7.31332031 4.94652344 -6.54101562 4.95117188 C-4.69397617 4.96293646 -2.84697787 4.98087135 -1 5 C-0.67 3.35 -0.34 1.7 0 0 Z " fill="#6E70B1" transform="translate(191,99)"/>
<path d="M0 0 C0.99 0 1.98 0 3 0 C3 42.24 3 84.48 3 128 C1.02 128.99 1.02 128.99 -1 130 C-0.67 87.1 -0.34 44.2 0 0 Z " fill="#75A7DD" transform="translate(258,76)"/>
<path d="M0 0 C0.33 0.66 0.66 1.32 1 2 C3.97 2 6.94 2 10 2 C9.01 2.66 8.02 3.32 7 4 C7.33 4 7.66 4 8 4 C10 4 12 4 14 4 C14.495 6.475 14.495 6.475 15 9 C16.65 8.34 18.3 7.68 20 7 C20 7.66 20 8.32 20 9 C22.64 8.67 25.28 8.34 28 8 C27.67 8.66 27.34 9.32 27 10 C26.34 10 25.68 10 25 10 C24.67 11.98 24.34 13.96 24 16 C19.31737848 15.6419726 14.93359843 15.29482056 10.4375 13.875 C4.9891605 12.48814995 0.15624772 13.26687577 -5.125 15.0625 C-9.39682334 16.45548587 -13.23927983 16.72234674 -17.4375 15 C-17.953125 14.67 -18.46875 14.34 -19 14 C-18.67 13.34 -18.34 12.68 -18 12 C-17.01 12.33 -16.02 12.66 -15 13 C-15.33 12.01 -15.66 11.02 -16 10 C-16.99 10 -17.98 10 -19 10 C-19.33 9.01 -19.66 8.02 -20 7 C-18.73542969 7.23396484 -18.73542969 7.23396484 -17.4453125 7.47265625 C-16.34960938 7.66730469 -15.25390625 7.86195312 -14.125 8.0625 C-13.03445312 8.25972656 -11.94390625 8.45695312 -10.8203125 8.66015625 C-8.05346717 9.25631899 -8.05346717 9.25631899 -6 8 C-6.33 7.34 -6.66 6.68 -7 6 C-6.34 6 -5.68 6 -5 6 C-5.7763932 2.9254644 -5.7763932 2.9254644 -8 1 C-5.07175348 0.02391783 -3.04386724 -0.08226668 0 0 Z " fill="#DCDCEB" transform="translate(169,116)"/>
<path d="M0 0 C0.33 1.32 0.66 2.64 1 4 C-1.31 4.33 -3.62 4.66 -6 5 C-6.23428313 9.7897321 -6.23428313 9.7897321 -4 14 C0.47883696 13.55296014 0.47883696 13.55296014 4 11 C4.33 11 4.66 11 5 11 C5 8.03 5 5.06 5 2 C6.65 2 8.3 2 10 2 C10 3.98 10 5.96 10 8 C11.98 8 13.96 8 16 8 C16 6.02 16 4.04 16 2 C17.65 2 19.3 2 21 2 C21 7.61 21 13.22 21 19 C19.35 19 17.7 19 16 19 C16 16.69 16 14.38 16 12 C14.02 12 12.04 12 10 12 C10 14.31 10 16.62 10 19 C7.33333333 19 4.66666667 19 2 19 C0.72125 19.12375 -0.5575 19.2475 -1.875 19.375 C-5.54126486 19.36147135 -5.95234188 19.0397151 -9 16.5 C-11.72547504 12.56526982 -11.81694628 9.67887415 -11 5 C-8.17762648 1.12157281 -4.83495376 -0.71102261 0 0 Z " fill="#444444" transform="translate(154,143)"/>
<path d="M0 0 C4.84844447 0.71587771 6.71371236 2.34856929 10 6 C10.33 6.33 10.66 6.66 11 7 C11.78441936 11.48239633 10.69158716 13.79241986 8.1875 17.375 C7.36378906 18.51582031 7.36378906 18.51582031 6.5234375 19.6796875 C5.0417295 21.93644277 4.16260894 23.94967319 3.3125 26.5 C2.879375 27.655 2.44625 28.81 2 30 C-1 31 -1 31 -3.1875 30.0625 C-4.0846875 29.5365625 -4.0846875 29.5365625 -5 29 C-4.84273438 28.44054687 -4.68546875 27.88109375 -4.5234375 27.3046875 C-3.97342047 24.88297073 -3.78313229 22.60240583 -3.625 20.125 C-3.05995238 13.27958704 -1.55056858 6.68012248 0 0 Z " fill="#D3C9B7" transform="translate(119,81)"/>
<path d="M0 0 C2.9375 1.4375 2.9375 1.4375 5 4 C5.72259546 7.14887127 5.6900808 9.8469479 5 13 C2.9375 16.0625 2.9375 16.0625 0 18 C-4.3766411 18.78154305 -6.21772362 18.51596953 -9.9375 16.0625 C-12.35365674 12.47487333 -12.7425028 10.34295081 -12.48046875 6.09375 C-12 4 -12 4 -9.9375 1.4375 C-6.25456163 -0.36478899 -4.05704375 -0.57957768 0 0 Z " fill="#404040" transform="translate(105,144)"/>
<path d="M0 0 C9.0535973 -0.48285852 9.0535973 -0.48285852 13.0625 1.5625 C15.627235 4.7891021 16 6.89763122 16 11 C14.86349056 13.37633793 13.85558971 15.14441029 12 17 C7.99779347 17.14355117 4.00558317 17.04216403 0 17 C0 11.39 0 5.78 0 0 Z " fill="#3F3F3F" transform="translate(112,144)"/>
<path d="M0 0 C1.60407328 -0.02708567 3.2082785 -0.04643483 4.8125 -0.0625 C5.70582031 -0.07410156 6.59914063 -0.08570312 7.51953125 -0.09765625 C10 0 10 0 13 1 C12.51418465 7.00876875 11.67642622 12.78201395 10.3984375 18.671875 C9.88303648 21.25331439 9.88303648 21.25331439 10.0625 24.9375 C10 28 10 28 8.5 29.9375 C8.005 30.288125 7.51 30.63875 7 31 C5.02833006 25.15712444 4.58723239 19.70397479 4.375 13.5625 C4.33632812 12.64017578 4.29765625 11.71785156 4.2578125 10.76757812 C4.16431324 8.51190857 4.0785609 6.25623084 4 4 C2.7326344 8.16788118 1.73197981 12.0942456 1.375 16.4375 C1.30023438 17.30246094 1.22546875 18.16742188 1.1484375 19.05859375 C1.09945312 19.69925781 1.05046875 20.33992188 1 21 C-1.28704302 17.56943547 -1.43374766 15.68977279 -1.75 11.625 C-1.84796875 10.50351563 -1.9459375 9.38203125 -2.046875 8.2265625 C-1.99932424 4.95348534 -1.42081856 2.91814273 0 0 Z " fill="#E2DAC7" transform="translate(106,79)"/>
<path d="M0 0 C0.95261719 -0.00515625 1.90523437 -0.0103125 2.88671875 -0.015625 C5.3125 0.25 5.3125 0.25 7.3125 2.25 C3.3525 1.92 -0.6075 1.59 -4.6875 1.25 C-4.3575 2.57 -4.0275 3.89 -3.6875 5.25 C-3.0275 5.25 -2.3675 5.25 -1.6875 5.25 C-1.3575 4.26 -1.0275 3.27 -0.6875 2.25 C2.3125 3.25 2.3125 3.25 4.3125 5.25 C4.6425 4.59 4.9725 3.93 5.3125 3.25 C6.3025 3.58 7.2925 3.91 8.3125 4.25 C9 6.3125 9 6.3125 9.3125 8.25 C8.673125 8.085 8.03375 7.92 7.375 7.75 C0.50248997 6.62795755 -4.53537262 6.6487547 -10.6875 10.25 C-11.3475 10.25 -12.0075 10.25 -12.6875 10.25 C-15.92423227 16.22550572 -17.91822051 22.71727573 -19.6875 29.25 C-20.6775 29.25 -21.6675 29.25 -22.6875 29.25 C-23.0175 29.91 -23.3475 30.57 -23.6875 31.25 C-23.54700482 29.77031676 -23.39995174 28.29125484 -23.25 26.8125 C-23.16878906 25.98878906 -23.08757812 25.16507813 -23.00390625 24.31640625 C-22.6875 22.25 -22.6875 22.25 -21.6875 21.25 C-22.3475 20.92 -23.0075 20.59 -23.6875 20.25 C-23.13060623 14.40261547 -21.27644302 10.52480349 -16.8203125 6.609375 C-11.41126866 2.40460884 -7.00170481 -0.03820848 0 0 Z " fill="#B6B7D7" transform="translate(173.6875,80.75)"/>
<path d="M0 0 C4.29 0 8.58 0 13 0 C13 1.32 13 2.64 13 4 C10.36 4 7.72 4 5 4 C5.33 4.66 5.66 5.32 6 6 C9.02934491 6.65772428 9.02934491 6.65772428 12 7 C12 8.32 12 9.64 12 11 C9.69 11 7.38 11 5 11 C5 11.66 5 12.32 5 13 C7.64 13 10.28 13 13 13 C13 14.32 13 15.64 13 17 C8.71 17 4.42 17 0 17 C0 11.39 0 5.78 0 0 Z " fill="#464646" transform="translate(129,144)"/>
<path d="M0 0 C4.7769834 2.32024908 7.35254203 5.51968651 10 10 C11.16348868 13.49046605 11.16834776 16.32277017 11.1875 20 C11.20167969 21.2375 11.21585938 22.475 11.23046875 23.75 C11 27 11 27 9 30 C9 29.01 9 28.02 9 27 C8.01 27 7.02 27 6 27 C6 22.71 6 18.42 6 14 C5.34 14 4.68 14 4 14 C2.61558 12.03501678 1.28796166 10.02951535 0 8 C-0.98866506 6.65824027 -1.9838154 5.32103998 -3 4 C-2.01 2.68 -1.02 1.36 0 0 Z " fill="#D7D7E9" transform="translate(186,85)"/>
<path d="M0 0 C3.63 0 7.26 0 11 0 C11.33 1.32 11.66 2.64 12 4 C9.69 4 7.38 4 5 4 C5 4.99 5 5.98 5 7 C6.98 7 8.96 7 11 7 C11 7.99 11 8.98 11 10 C9.02 10 7.04 10 5 10 C5 10.99 5 11.98 5 13 C7.31 13 9.62 13 12 13 C12 14.32 12 15.64 12 17 C8.04 17 4.08 17 0 17 C0 11.39 0 5.78 0 0 Z " fill="#414141" transform="translate(177,145)"/>
<path d="M0 0 C0.66 0.33 1.32 0.66 2 1 C1.67 2.65 1.34 4.3 1 6 C0.030625 5.814375 -0.93875 5.62875 -1.9375 5.4375 C-2.948125 5.293125 -3.95875 5.14875 -5 5 C-6.35618499 6.12534105 -6.35618499 6.12534105 -6.0625 9.0625 C-6.041875 10.031875 -6.02125 11.00125 -6 12 C-3.69 12 -1.38 12 1 12 C1.33 13.32 1.66 14.64 2 16 C-1.51824511 18.34549674 -2.85775694 18.57991403 -7 18 C-10.02883418 15.95882914 -11.70071921 14.46257223 -12.44921875 10.8046875 C-12.62771901 7.07464749 -12.40341332 4.68916442 -10.5 1.4375 C-6.80924814 -0.68468232 -4.230824 -0.34119548 0 0 Z " fill="#424242" transform="translate(90,144)"/>
<path d="M0 0 C0.33 1.32 0.66 2.64 1 4 C-1.31 4.33 -3.62 4.66 -6 5 C-6.23428313 9.7897321 -6.23428313 9.7897321 -4 14 C0.47883696 13.55296014 0.47883696 13.55296014 4 11 C4.66 11.33 5.32 11.66 6 12 C5.6875 14.375 5.6875 14.375 5 17 C1.82166345 19.11889103 -0.19352136 19.54963775 -3.9921875 19.4375 C-6.86802483 18.8108584 -8.49255843 17.23258629 -10.14453125 14.84765625 C-11.82606985 11.21584001 -11.69623631 8.98753523 -11 5 C-8.17762648 1.12157281 -4.83495376 -0.71102261 0 0 Z " fill="#3D3D3D" transform="translate(154,143)"/>
<path d="M0 0 C3.96 0 7.92 0 12 0 C12 1.32 12 2.64 12 4 C9.69 4 7.38 4 5 4 C5 4.66 5 5.32 5 6 C7.31 6 9.62 6 12 6 C12 7.32 12 8.64 12 10 C9.69 10 7.38 10 5 10 C5 12.31 5 14.62 5 17 C3.35 17 1.7 17 0 17 C0 11.39 0 5.78 0 0 Z " fill="#3F3F3F" transform="translate(190,145)"/>
<path d="M0 0 C4.80970986 1.28362032 8.51758761 3.46381539 12.67651367 6.08862305 C20.74402356 11.15082663 27.15788239 14.94484959 37 13 C35.703125 15.46875 35.703125 15.46875 34 18 C25.23266623 19.34882058 17.45546929 13.74893774 10.125 9.5625 C9.25875 9.08490234 8.3925 8.60730469 7.5 8.11523438 C6.67757812 7.64537109 5.85515625 7.17550781 5.0078125 6.69140625 C4.26160645 6.27060791 3.51540039 5.84980957 2.74658203 5.41625977 C0.65577943 3.72088014 0.35712178 2.62180499 0 0 Z " fill="#93C2F3" transform="translate(110,260)"/>
<path d="M0 0 C8 0 8 0 10.0625 1.5625 C11.38015596 4.9884055 10.79870221 7.47239857 10 11 C9 12 9 12 6.4375 12.0625 C5.633125 12.041875 4.82875 12.02125 4 12 C3.67 13.32 3.34 14.64 3 16 C2.01 16 1.02 16 0 16 C0 10.72 0 5.44 0 0 Z " fill="#4B5B84" transform="translate(140,205)"/>
<path d="M0 0 C3 0.25 3 0.25 5 2.25 C5.55186722 8.32053942 5.55186722 8.32053942 3.8125 11.25 C2 12.25 2 12.25 -0.5625 12.0625 C-3 11.25 -3 11.25 -5 9.25 C-5.25 5.75 -5.25 5.75 -5 2.25 C-3 0.25 -3 0.25 0 0 Z " fill="#4A5A83" transform="translate(173,178.75)"/>
<path d="M0 0 C1.875 0.25 1.875 0.25 4 1 C5.25 3.0625 5.25 3.0625 6 5 C6.99 4.67 7.98 4.34 9 4 C12.625 4.3125 12.625 4.3125 16 5 C16.33 5.66 16.66 6.32 17 7 C14.36 7 11.72 7 9 7 C9 7.66 9 8.32 9 9 C7.35 9.33 5.7 9.66 4 10 C4 9.34 4 8.68 4 8 C-0.62 8.33 -5.24 8.66 -10 9 C-10 7.68 -10 6.36 -10 5 C-7.03 5.33 -4.06 5.66 -1 6 C-0.67 4.02 -0.34 2.04 0 0 Z " fill="#383B96" transform="translate(165,100)"/>
<path d="M0 0 C0.90492188 0.02320312 1.80984375 0.04640625 2.7421875 0.0703125 C4.10730469 0.09738281 4.10730469 0.09738281 5.5 0.125 C6.19867188 0.14820312 6.89734375 0.17140625 7.6171875 0.1953125 C7.36271925 4.52127278 7.005254 6.71533551 4.2421875 10.1328125 C1.6171875 12.1953125 1.6171875 12.1953125 -1.3828125 12.1953125 C-1.3828125 9.2253125 -1.3828125 6.2553125 -1.3828125 3.1953125 C-2.3728125 2.8653125 -3.3628125 2.5353125 -4.3828125 2.1953125 C-2.3828125 0.1953125 -2.3828125 0.1953125 0 0 Z " fill="#3D4099" transform="translate(183.3828125,107.8046875)"/>
<path d="M0 0 C0.99 0 1.98 0 3 0 C3.33 1.32 3.66 2.64 4 4 C4.61875 4.103125 5.2375 4.20625 5.875 4.3125 C8 5 8 5 10 8 C10.25760279 10.69452521 10.08900053 13.28548375 10 16 C9.01 16 8.02 16 7 16 C6.67 13.03 6.34 10.06 6 7 C5.01 7 4.02 7 3 7 C3 9.97 3 12.94 3 16 C2.01 16 1.02 16 0 16 C0 10.72 0 5.44 0 0 Z " fill="#4E5E86" transform="translate(116,201)"/>
<path d="M0 0 C1.8125 1.8125 1.8125 1.8125 3 4 C3 4.99 3 5.98 3 7 C0.69 7 -1.62 7 -4 7 C-4 7.66 -4 8.32 -4 9 C-2.35 8.67 -0.7 8.34 1 8 C1 8.99 1 9.98 1 11 C-2.375 11.1875 -2.375 11.1875 -6 11 C-8 8 -8 8 -7.75 4.375 C-7.5025 3.26125 -7.255 2.1475 -7 1 C-4.4254716 -0.2872642 -2.85291355 -0.34791629 0 0 Z " fill="#6C799A" transform="translate(196,179)"/>
<path d="M0 0 C2.375 -0.125 2.375 -0.125 5 0 C7 2 7 2 7.1953125 4.3828125 C7.17210937 5.28773438 7.14890625 6.19265625 7.125 7.125 C7.10695312 8.03507813 7.08890625 8.94515625 7.0703125 9.8828125 C7.04710937 10.58148438 7.02390625 11.28015625 7 12 C0.84765625 12.09765625 0.84765625 12.09765625 -1 12 C-2 11 -2 11 -2.0625 8.4375 C-2.041875 7.633125 -2.02125 6.82875 -2 6 C-0.35 5.34 1.3 4.68 3 4 C1.68 4 0.36 4 -1 4 C-0.67 2.68 -0.34 1.36 0 0 Z " fill="#43547E" transform="translate(130,205)"/>
<path d="M0 0 C3 0.25 3 0.25 5 2.25 C5.125 4.875 5.125 4.875 5 7.25 C4.01 7.58 3.02 7.91 2 8.25 C2.66 8.58 3.32 8.91 4 9.25 C4 9.91 4 10.57 4 11.25 C1.21309756 12.3854047 0.13101837 12.29764304 -2.75 11.25 C-5 9.25 -5 9.25 -5.4375 5.6875 C-4.88505724 1.3468783 -4.41475932 0.36789661 0 0 Z " fill="#384A77" transform="translate(149,178.75)"/>
<path d="M0 0 C0.99 0 1.98 0 3 0 C3.99 2.97 4.98 5.94 6 9 C7.32 6.03 8.64 3.06 10 0 C10.99 0 11.98 0 13 0 C11.60961435 5.13373162 9.91539047 10.03739743 8 15 C6.140625 14.8359375 6.140625 14.8359375 4 14 C2.734375 11.6015625 2.734375 11.6015625 1.75 8.625 C1.41484375 7.64789063 1.0796875 6.67078125 0.734375 5.6640625 C0 3 0 3 0 0 Z " fill="#475781" transform="translate(93,175)"/>
<path d="M0 0 C2.0625 0.4375 2.0625 0.4375 4 1 C4.67693777 5.51291848 3.73930443 7.80888571 1.125 11.375 C-0.4921875 13.4609375 -0.4921875 13.4609375 -2 15 C-2.66 15 -3.32 15 -4 15 C-4.33 15.99 -4.66 16.98 -5 18 C-5.48321946 11.35573245 -4.18443566 6.84452648 -1 1 C-0.67 0.67 -0.34 0.34 0 0 Z " fill="#C0B39E" transform="translate(126,87)"/>
<path d="M0 0 C2.4375 0.8125 2.4375 0.8125 4.4375 2.8125 C4.4375 4.1325 4.4375 5.4525 4.4375 6.8125 C2.1275 6.8125 -0.1825 6.8125 -2.5625 6.8125 C-2.5625 7.4725 -2.5625 8.1325 -2.5625 8.8125 C-0.9125 8.8125 0.7375 8.8125 2.4375 8.8125 C2.4375 9.8025 2.4375 10.7925 2.4375 11.8125 C-0.4375 11.9375 -0.4375 11.9375 -3.5625 11.8125 C-5.5625 9.8125 -5.5625 9.8125 -5.875 6.375 C-5.5625 2.8125 -5.5625 2.8125 -4.375 0.8125 C-2.5625 -0.1875 -2.5625 -0.1875 0 0 Z " fill="#40517C" transform="translate(166.5625,205.1875)"/>
<path d="M0 0 C1.32 0.33 2.64 0.66 4 1 C4.66 3.64 5.32 6.28 6 9 C6.66 9 7.32 9 8 9 C8.10957031 8.43410156 8.21914062 7.86820313 8.33203125 7.28515625 C8.56986328 6.18494141 8.56986328 6.18494141 8.8125 5.0625 C9.03873047 3.96615234 9.03873047 3.96615234 9.26953125 2.84765625 C9.51058594 2.23792969 9.75164062 1.62820312 10 1 C10.99 0.67 11.98 0.34 13 0 C11.9318153 5.11365014 10.76892524 10.07227969 9 15 C7.68 15 6.36 15 5 15 C4.16013916 13.06532058 3.32831973 11.12714871 2.5 9.1875 C2.0359375 8.10855469 1.571875 7.02960938 1.09375 5.91796875 C0 3 0 3 0 0 Z " fill="#4A5A83" transform="translate(130,175)"/>
<path d="M0 0 C1.423125 0.2475 1.423125 0.2475 2.875 0.5 C3.535 1.49 4.195 2.48 4.875 3.5 C2.2010876 4.39130413 -0.36223823 4.97731534 -3.125 5.5 C-3.125 7.15 -3.125 8.8 -3.125 10.5 C-2.361875 10.644375 -1.59875 10.78875 -0.8125 10.9375 C1.875 11.5 1.875 11.5 4.875 12.5 C4.545 13.49 4.215 14.48 3.875 15.5 C-2.40086207 15.98275862 -2.40086207 15.98275862 -5.5625 13.875 C-7.60884007 10.76456309 -7.72307728 9.16322334 -7.125 5.5 C-5.07835071 1.8790051 -4.15911723 0.66545876 0 0 Z " fill="#465680" transform="translate(108.125,201.5)"/>
<path d="M0 0 C0.33 0 0.66 0 1 0 C1.22142255 1.95689659 1.4267568 3.91561952 1.625 5.875 C1.74101563 6.96554688 1.85703125 8.05609375 1.9765625 9.1796875 C1.98429687 10.11039063 1.99203125 11.04109375 2 12 C1.34 12.66 0.68 13.32 0 14 C-0.33 13.01 -0.66 12.02 -1 11 C-2.7015625 11.0309375 -2.7015625 11.0309375 -4.4375 11.0625 C-8 11 -8 11 -9 10 C-9.1875 7.0625 -9.1875 7.0625 -9 4 C-8.34 3.34 -7.68 2.68 -7 2 C-3.875 2.375 -3.875 2.375 -1 3 C-0.67 2.01 -0.34 1.02 0 0 Z " fill="#F3F3F3" transform="translate(92,146)"/>
<path d="M0 0 C0.95261719 -0.00515625 1.90523437 -0.0103125 2.88671875 -0.015625 C5.3125 0.25 5.3125 0.25 7.3125 2.25 C3.3525 1.92 -0.6075 1.59 -4.6875 1.25 C-4.3575 2.57 -4.0275 3.89 -3.6875 5.25 C-3.0275 5.25 -2.3675 5.25 -1.6875 5.25 C-1.3575 4.26 -1.0275 3.27 -0.6875 2.25 C2.3125 3.25 2.3125 3.25 4.3125 5.25 C4.6425 4.59 4.9725 3.93 5.3125 3.25 C6.3025 3.58 7.2925 3.91 8.3125 4.25 C9 6.3125 9 6.3125 9.3125 8.25 C8.673125 8.085 8.03375 7.92 7.375 7.75 C0.99645451 6.70860482 -4.63388045 6.76646378 -10.6875 9.25 C-10.3125 6.8125 -10.3125 6.8125 -9.6875 4.25 C-9.0275 3.92 -8.3675 3.59 -7.6875 3.25 C-8.6775 2.92 -9.6675 2.59 -10.6875 2.25 C-6.98620703 0.55104585 -4.06583604 -0.02218737 0 0 Z " fill="#B3B5D6" transform="translate(173.6875,80.75)"/>
<path d="M0 0 C1.32 0.33 2.64 0.66 4 1 C4.5501264 4.74085952 4.01848345 5.97227483 1.875 9.1875 C-0.70486311 12.06304943 -3.21472897 13.11970441 -7 14 C-7.8125 12.3125 -7.8125 12.3125 -8 10 C-5.75 7.5625 -5.75 7.5625 -3 5 C-1.94712186 3.36622358 -0.9272999 1.70818403 0 0 Z " fill="#E4E5F0" transform="translate(191,111)"/>
<path d="M0 0 C0.33 0.66 0.66 1.32 1 2 C3.97 2 6.94 2 10 2 C9.01 2.66 8.02 3.32 7 4 C7.33 4 7.66 4 8 4 C10 4 12 4 14 4 C10.97399366 7.02600634 8.23008375 7.17513525 4.125 7.25 C-0.07145699 7.20717901 -2.69565554 6.78804063 -6 4 C-6.66 3.01 -7.32 2.02 -8 1 C-5.07175348 0.02391783 -3.04386724 -0.08226668 0 0 Z " fill="#FAFAFC" transform="translate(169,116)"/>
<path d="M0 0 C3.3 0 6.6 0 10 0 C11 4 11 4 10.0625 6.25 C9.711875 6.8275 9.36125 7.405 9 8 C9.66 8.66 10.32 9.32 11 10 C9.02 10.99 9.02 10.99 7 12 C0.29612756 4.88610478 0.29612756 4.88610478 0 0 Z " fill="#8F91C3" transform="translate(155,109)"/>
<path d="M0 0 C-0.33 0.66 -0.66 1.32 -1 2 C-1.67349161 3.66392045 -2.3409159 5.33032028 -3 7 C-3.66 7 -4.32 7 -5 7 C-5.268125 7.639375 -5.53625 8.27875 -5.8125 8.9375 C-7 11 -7 11 -10 12 C-10.33 11.01 -10.66 10.02 -11 9 C-11.66 9 -12.32 9 -13 9 C-10.89322153 3.31169814 -6.22566238 -0.91553859 0 0 Z " fill="#C7C7E0" transform="translate(166,84)"/>
<path d="M0 0 C3.63 0 7.26 0 11 0 C11 0.99 11 1.98 11 3 C9.68 3 8.36 3 7 3 C7 6.96 7 10.92 7 15 C6.01 15 5.02 15 4 15 C4 11.04 4 7.08 4 3 C2.68 3 1.36 3 0 3 C0 2.01 0 1.02 0 0 Z " fill="#465780" transform="translate(113,175)"/>
<path d="M0 0 C0.66 0 1.32 0 2 0 C2.91892116 3.67568464 2.95904856 5.16380575 2 9 C-0.97 9.66 -3.94 10.32 -7 11 C-7.33 10.34 -7.66 9.68 -8 9 C-6.68 8.67 -5.36 8.34 -4 8 C-5.98 8 -7.96 8 -10 8 C-10.33 7.01 -10.66 6.02 -11 5 C-10.21625 5.04125 -9.4325 5.0825 -8.625 5.125 C-5.83883881 5.28728734 -5.83883881 5.28728734 -4 3 C-2.68252676 2.30251417 -1.35085807 1.63040043 0 1 C0 0.67 0 0.34 0 0 Z " fill="#8183BB" transform="translate(180,111)"/>
<path d="M0 0 C2.499964 2.499964 3.67507024 4.71922154 5 8 C4.6875 11.375 4.6875 11.375 4 14 C-1.74418605 9.76744186 -1.74418605 9.76744186 -3 6 C-3.125 3.25 -3.125 3.25 -3 1 C-2.01 0.67 -1.02 0.34 0 0 Z " fill="#D9DAEA" transform="translate(154,109)"/>
<path d="M0 0 C2.625 0.375 2.625 0.375 5 1 C5.625 3.875 5.625 3.875 6 7 C4 9 4 9 1.4375 9.1875 C-1 9 -1 9 -2 8 C-2.1875 5.0625 -2.1875 5.0625 -2 2 C-1.34 1.34 -0.68 0.68 0 0 Z " fill="#F1F1F1" transform="translate(100,148)"/>
<path d="M0 0 C3.48191452 1.88211596 6.03178994 3.5009599 8 7 C7.67 7.99 7.34 8.98 7 10 C4.8125 10.375 4.8125 10.375 2 10 C0.00977164 8.16038352 -1.38989899 6.20813852 -3 4 C-2.01 2.68 -1.02 1.36 0 0 Z " fill="#D4D5E7" transform="translate(186,85)"/>
<path d="M0 0 C1.67542976 0.28604898 3.34385343 0.61781233 5 1 C5.91657981 6.38490641 6.11138159 11.54230189 6 17 C3.81005752 13.71508627 3.64722661 12.16904361 3.375 8.3125 C3.30023438 7.31863281 3.22546875 6.32476562 3.1484375 5.30078125 C3.09945312 4.54152344 3.05046875 3.78226562 3 3 C2.34 3 1.68 3 1 3 C1.165 3.515625 1.33 4.03125 1.5 4.5625 C2.15049 7.73363876 2.0620734 10.77218334 2 14 C-2.14084507 6.01408451 -2.14084507 6.01408451 -1.6875 2.75 C-1 1 -1 1 0 0 Z " fill="#D7CCB6" transform="translate(96,83)"/>
<path d="M0 0 C2.475 0.495 2.475 0.495 5 1 C4.814375 2.093125 4.62875 3.18625 4.4375 4.3125 C3.7421932 7.93624133 3.7421932 7.93624133 5 11 C4.34 11 3.68 11 3 11 C3 12.65 3 14.3 3 16 C2.01 16 1.02 16 0 16 C0 10.72 0 5.44 0 0 Z " fill="#495982" transform="translate(140,205)"/>
<path d="M0 0 C0.99 0 1.98 0 3 0 C3 0.99 3 1.98 3 3 C3.66 3 4.32 3 5 3 C5 3.66 5 4.32 5 5 C4.34 5 3.68 5 3 5 C3 6.98 3 8.96 3 11 C3.66 11 4.32 11 5 11 C5 11.99 5 12.98 5 14 C3.35 13.67 1.7 13.34 0 13 C0 10.36 0 7.72 0 5 C-0.66 5 -1.32 5 -2 5 C-2 4.34 -2 3.68 -2 3 C-1.34 3 -0.68 3 0 3 C0 2.01 0 1.02 0 0 Z " fill="#4A5A83" transform="translate(154,203)"/>
<path d="M0 0 C-0.33 0.66 -0.66 1.32 -1 2 C-1.66 2 -2.32 2 -3 2 C-3.33 3.98 -3.66 5.96 -4 8 C-9.91492272 7.54775239 -15.35199888 6.8417395 -21 5 C-20.01 4.67 -19.02 4.34 -18 4 C-18 3.34 -18 2.68 -18 2 C-17.01 2 -16.02 2 -15 2 C-14.67 2.66 -14.34 3.32 -14 4 C-13.01 4 -12.02 4 -11 4 C-10.01 4.33 -9.02 4.66 -8 5 C-8.33 5.66 -8.66 6.32 -9 7 C-7.68 7 -6.36 7 -5 7 C-5 5.68 -5 4.36 -5 3 C-5.99 3 -6.98 3 -8 3 C-8 2.34 -8 1.68 -8 1 C-5.10765685 0.17361624 -3.11257569 0 0 0 Z " fill="#AEB0D3" transform="translate(197,124)"/>
<path d="M0 0 C2.375 -0.27734375 2.375 -0.27734375 5 0.0625 C5.86625 0.15660156 6.7325 0.25070313 7.625 0.34765625 C10.25422246 1.06982755 11.28842884 1.9224679 13 4 C12.67 4.66 12.34 5.32 12 6 C4.575 5.01 4.575 5.01 -3 4 C-2.01 2.68 -1.02 1.36 0 0 Z " fill="#8FBBEB" transform="translate(137,2)"/>
<path d="M0 0 C4.875 0.875 4.875 0.875 6 2 C6.25 4.9375 6.25 4.9375 6 8 C3 10 3 10 0 10 C0 6.7 0 3.4 0 0 Z " fill="#F5F5F5" transform="translate(117,148)"/>
<path d="M0 0 C1.9169986 0.31045732 3.83358723 0.62344671 5.75 0.9375 C7.35101563 1.19853516 7.35101563 1.19853516 8.984375 1.46484375 C11.36347593 1.88704171 13.66915211 2.37202884 16 3 C15.01 3 14.02 3 13 3 C13 4.32 13 5.64 13 7 C12.01 7 11.02 7 10 7 C10 6.34 10 5.68 10 5 C8.68 4.67 7.36 4.34 6 4 C6 4.66 6 5.32 6 6 C6.66 6 7.32 6 8 6 C8 6.66 8 7.32 8 8 C9.32 8.33 10.64 8.66 12 9 C4.57142857 9.28571429 4.57142857 9.28571429 1 7 C1.33 6.34 1.66 5.68 2 5 C2.99 5.33 3.98 5.66 5 6 C4.67 5.01 4.34 4.02 4 3 C3.01 3 2.02 3 1 3 C0.67 2.01 0.34 1.02 0 0 Z " fill="#A9AAD0" transform="translate(149,123)"/>
<path d="M0 0 C5.05454098 0.27943804 10.08014404 0.31196159 15 -1 C15.33 0.32 15.66 1.64 16 3 C17.65 2.34 19.3 1.68 21 1 C20.01 2.485 20.01 2.485 19 4 C12.125 3.125 12.125 3.125 11 2 C7.42968389 2.26480605 3.8793006 2.65173936 0.3203125 3.0390625 C-3 3 -3 3 -4.9453125 1.5234375 C-5.29335937 1.02070312 -5.64140625 0.51796875 -6 0 C-3.44683086 -1.27658457 -2.70625971 -0.70682275 0 0 Z " fill="#A8A9CF" transform="translate(168,122)"/>
<path d="M0 0 C2.08304538 -0.05418326 4.16649768 -0.09287551 6.25 -0.125 C7.99023438 -0.15980469 7.99023438 -0.15980469 9.765625 -0.1953125 C12.82786046 -0.0103949 14.44202751 0.39176977 17 2 C16.34 3.65 15.68 5.3 15 7 C12 5 12 5 11 3 C9.68 3.33 8.36 3.66 7 4 C6.34 3.01 5.68 2.02 5 1 C4.67 1.66 4.34 2.32 4 3 C3.01 3.33 2.02 3.66 1 4 C0.67 2.68 0.34 1.36 0 0 Z " fill="#EFEFF5" transform="translate(169,82)"/>
<path d="M0 0 C0.99 0 1.98 0 3 0 C3 5.28 3 10.56 3 16 C2.01 16 1.02 16 0 16 C0 10.72 0 5.44 0 0 Z " fill="#4F5F87" transform="translate(162,174)"/>
<path d="M0 0 C2.97 0.495 2.97 0.495 6 1 C5.5359375 1.7734375 5.5359375 1.7734375 5.0625 2.5625 C3.70940713 5.66665423 3.38640576 8.65115007 3 12 C2.01 12 1.02 12 0 12 C0 8.04 0 4.08 0 0 Z " fill="#505F87" transform="translate(173,205)"/>
<path d="M0 0 C0.99 0 1.98 0 3 0 C3 4.95 3 9.9 3 15 C2.01 15 1.02 15 0 15 C0 10.05 0 5.1 0 0 Z " fill="#4D5D85" transform="translate(108,175)"/>
<path d="M0 0 C2.31 0 4.62 0 7 0 C7.33 3.3 7.66 6.6 8 10 C5.36 9.67 2.72 9.34 0 9 C0 8.01 0 7.02 0 6 C1.98 6 3.96 6 6 6 C6 5.01 6 4.02 6 3 C4.02 3 2.04 3 0 3 C0 2.01 0 1.02 0 0 Z " fill="#DEDEDE" transform="translate(182,149)"/>
<path d="M0 0 C-1 3 -1 3 -3.0625 4.1875 C-3.701875 4.455625 -4.34125 4.72375 -5 5 C-2.525 5.99 -2.525 5.99 0 7 C0 7.99 0 8.98 0 10 C-3.40312738 8.94124926 -6.01353231 7.99097846 -9 6 C-9 5.01 -9 4.02 -9 3 C-2.25 0 -2.25 0 0 0 Z " fill="#526188" transform="translate(91,178)"/>
<path d="M0 0 C2.31 0 4.62 0 7 0 C7.33 1.98 7.66 3.96 8 6 C4.5647952 8.29013653 3.014669 8.17842973 -1 8 C0.32 7.67 1.64 7.34 3 7 C3 6.01 3 5.02 3 4 C2.01 3.34 1.02 2.68 0 2 C0 1.34 0 0.68 0 0 Z " fill="#6467AC" transform="translate(162,108)"/>
<path d="M0 0 C1.98 0 3.96 0 6 0 C6 0.99 6 1.98 6 3 C5.01 3 4.02 3 3 3 C3 5.64 3 8.28 3 11 C2.01 11 1.02 11 0 11 C0 7.37 0 3.74 0 0 Z " fill="#485882" transform="translate(181,179)"/>
<path d="M0 0 C3.40312738 1.05875074 6.01353231 2.00902154 9 4 C8.67 5.32 8.34 6.64 8 8 C5.69 8.66 3.38 9.32 1 10 C2 7 2 7 5 5 C2.525 4.01 2.525 4.01 0 3 C0 2.01 0 1.02 0 0 Z " fill="#495982" transform="translate(200,178)"/>
<path d="M0 0 C0.24900646 1.93505023 0.47356242 3.87325934 0.6875 5.8125 C0.81511719 6.89144531 0.94273438 7.97039062 1.07421875 9.08203125 C1 12 1 12 -0.48046875 13.88671875 C-0.98191406 14.25410156 -1.48335938 14.62148437 -2 15 C-4.57995736 5.21321962 -4.57995736 5.21321962 -3 1 C-1 0 -1 0 0 0 Z " fill="#E9E4D3" transform="translate(115,95)"/>
<path d="M0 0 C3.3 0 6.6 0 10 0 C9 4 9 4 8 5 C5.0625 5.1875 5.0625 5.1875 2 5 C1.34 4.34 0.68 3.68 0 3 C0 2.01 0 1.02 0 0 Z " fill="#624E40" transform="translate(100,126)"/>
<path d="M0 0 C2.97 0.33 5.94 0.66 9 1 C8.67 2.32 8.34 3.64 8 5 C5.69 5 3.38 5 1 5 C0.67 3.35 0.34 1.7 0 0 Z " fill="#624D40" transform="translate(112,126)"/>
<path d="M0 0 C0.33 0 0.66 0 1 0 C1.05402274 2.10388569 1.09280256 4.20816714 1.125 6.3125 C1.14820313 7.48425781 1.17140625 8.65601562 1.1953125 9.86328125 C1 13 1 13 -1 16 C-1 15.01 -1 14.02 -1 13 C-1.99 12.67 -2.98 12.34 -4 12 C-3.01 12 -2.02 12 -1 12 C-1.66 11.67 -2.32 11.34 -3 11 C-3 8.36 -3 5.72 -3 3 C-2.34 3.33 -1.68 3.66 -1 4 C-0.67 4.99 -0.34 5.98 0 7 C0 4.69 0 2.38 0 0 Z " fill="#ABACD1" transform="translate(196,99)"/>
<path d="M0 0 C4.75 0.75 4.75 0.75 7 3 C7 4.32 7 5.64 7 7 C4.36 6.67 1.72 6.34 -1 6 C-0.649375 5.38125 -0.29875 4.7625 0.0625 4.125 C0.371875 3.42375 0.68125 2.7225 1 2 C0.67 1.34 0.34 0.68 0 0 Z " fill="#7884A2" transform="translate(164,205)"/>
<path d="M0 0 C2.86724686 0.57344937 3.8614515 0.8614515 6 3 C6.33 2.34 6.66 1.68 7 1 C7.99 1.33 8.98 1.66 10 2 C10.33 3.32 10.66 4.64 11 6 C6.38 5.34 1.76 4.68 -3 4 C-2.67 3.34 -2.34 2.68 -2 2 C-1.34 2.33 -0.68 2.66 0 3 C0 2.01 0 1.02 0 0 Z " fill="#AAACD1" transform="translate(172,83)"/>
<path d="M0 0 C1.6045556 0.14148989 3.20863767 0.28835686 4.8125 0.4375 C5.70582031 0.51871094 6.59914062 0.59992188 7.51953125 0.68359375 C10 1 10 1 13 2 C13 3.32 13 4.64 13 6 C11.68 6 10.36 6 9 6 C8.67 5.34 8.34 4.68 8 4 C5.05270463 2.84188612 5.05270463 2.84188612 2 3 C2.33 2.34 2.66 1.68 3 1 C2.01 0.67 1.02 0.34 0 0 Z " fill="#E9E9F2" transform="translate(179,125)"/>
<path d="M0 0 C0.13277344 0.61488281 0.26554687 1.22976562 0.40234375 1.86328125 C0.57894531 2.67152344 0.75554687 3.47976562 0.9375 4.3125 C1.19853516 5.51326172 1.19853516 5.51326172 1.46484375 6.73828125 C1.99886159 9.145401 1.99886159 9.145401 3 12 C2.34 12.66 1.68 13.32 1 14 C-1.44697666 9.63799813 -2.50269348 5.97306516 -3 1 C-1 0 -1 0 0 0 Z " fill="#EDE8DA" transform="translate(99,96)"/>
<path d="M0 0 C0.66 0.33 1.32 0.66 2 1 C1.03558469 3.41103827 0.31202953 4.77404758 -1.8125 6.3125 C-4.54191176 7.17031512 -6.27678692 6.75644808 -9 6 C-6.12050853 3.76039553 -3.23257974 1.70135776 0 0 Z " fill="#92C4F9" transform="translate(180,253)"/>
<path d="M0 0 C0.66 0.33 1.32 0.66 2 1 C1 4 1 4 -0.84765625 5.16796875 C-1.57855469 5.50441406 -2.30945313 5.84085938 -3.0625 6.1875 C-3.79597656 6.53167969 -4.52945313 6.87585938 -5.28515625 7.23046875 C-6.13400391 7.61138672 -6.13400391 7.61138672 -7 8 C-7 7.34 -7 6.68 -7 6 C-7.66 5.67 -8.32 5.34 -9 5 C-7.54735962 4.1361871 -6.0876837 3.28419546 -4.625 2.4375 C-3.40683594 1.72400391 -3.40683594 1.72400391 -2.1640625 0.99609375 C-1.44992188 0.66738281 -0.73578125 0.33867188 0 0 Z " fill="#A3CDFA" transform="translate(134,3)"/>
<path d="M0 0 C0 2.31 0 4.62 0 7 C-0.66 6.34 -1.32 5.68 -2 5 C-4.31765729 4.28072705 -6.65095874 3.6090107 -9 3 C-9 2.34 -9 1.68 -9 1 C-1.125 0 -1.125 0 0 0 Z " fill="#D9D9D9" transform="translate(143,147)"/>
<path d="M0 0 C-1.10699901 3.21029714 -2.01603825 4.00968977 -5 5.8125 C-5.99 6.204375 -6.98 6.59625 -8 7 C-8.66 6.67 -9.32 6.34 -10 6 C-5.38461538 0 -5.38461538 0 0 0 Z " fill="#92C4F9" transform="translate(44,57)"/>
<path d="M0 0 C0.66 0.33 1.32 0.66 2 1 C1.01906046 3.45234885 0.31296172 4.7809268 -1.875 6.3125 C-4.35009306 7.1132654 -5.58287634 6.86325845 -8 6 C-5.63404067 3.38499232 -3.13950774 1.61000397 0 0 Z " fill="#92C4F9" transform="translate(211,235)"/>
<path d="M0 0 C0.99 0.66 1.98 1.32 3 2 C1.71937515 3.7074998 0.38232443 5.37373596 -1 7 C-1.66 7 -2.32 7 -3 7 C-3.33 7.99 -3.66 8.98 -4 10 C-4 7.36 -4 4.72 -4 2 C-2.68 1.34 -1.36 0.68 0 0 Z " fill="#C6B9A5" transform="translate(125,95)"/>
<path d="M0 0 C2.64 0 5.28 0 8 0 C8 0.33 8 0.66 8 1 C7.01 1.33 6.02 1.66 5 2 C5.66 2.33 6.32 2.66 7 3 C7 3.66 7 4.32 7 5 C4.39417629 5.93065133 3.35801776 6.14917407 0.75 5.0625 C0.1725 4.711875 -0.405 4.36125 -1 4 C-0.67 2.68 -0.34 1.36 0 0 Z " fill="#506087" transform="translate(146,185)"/>
<path d="M0 0 C0.99 0 1.98 0 3 0 C1.14285714 7.57142857 1.14285714 7.57142857 -2 10 C-3.39195915 5.82412255 -1.82323219 3.86525224 0 0 Z " fill="#506087" transform="translate(103,175)"/>
<path d="M0 0 C-0.33 0.99 -0.66 1.98 -1 3 C-0.01 3.66 0.98 4.32 2 5 C1.34 5 0.68 5 0 5 C-0.33 5.66 -0.66 6.32 -1 7 C-4.26460973 5.19587357 -5.88929795 4.16605307 -8 1 C-5.07175348 0.02391783 -3.04386724 -0.08226668 0 0 Z " fill="#DDDDEC" transform="translate(169,116)"/>
<path d="M0 0 C0.94875 0.04125 1.8975 0.0825 2.875 0.125 C2.545 1.775 2.215 3.425 1.875 5.125 C1.215 5.125 0.555 5.125 -0.125 5.125 C-0.125 5.785 -0.125 6.445 -0.125 7.125 C-0.785 6.795 -1.445 6.465 -2.125 6.125 C-2.125 5.135 -2.125 4.145 -2.125 3.125 C-3.115 2.795 -4.105 2.465 -5.125 2.125 C-3.125 0.125 -3.125 0.125 0 0 Z " fill="#494B9E" transform="translate(184.125,107.875)"/>
<path d="M0 0 C0.33 0 0.66 0 1 0 C1 3.96 1 7.92 1 12 C0.01 10.68 -0.98 9.36 -2 8 C-4.02463255 7.34786708 -4.02463255 7.34786708 -6 7 C-6.66 6.34 -7.32 5.68 -8 5 C-5.69 5 -3.38 5 -1 5 C-0.67 3.35 -0.34 1.7 0 0 Z " fill="#7173B3" transform="translate(191,99)"/>
<path d="M0 0 C2.03125 0.05078125 2.03125 0.05078125 4.5 0.3125 C5.3146875 0.39113281 6.129375 0.46976562 6.96875 0.55078125 C7.97421875 0.77314453 7.97421875 0.77314453 9 1 C9.33 1.66 9.66 2.32 10 3 C7.36 3 4.72 3 2 3 C2 3.66 2 4.32 2 5 C0.68 5.33 -0.64 5.66 -2 6 C-1.125 1.125 -1.125 1.125 0 0 Z " fill="#44469C" transform="translate(172,104)"/>
<path d="M0 0 C1.65 1.32 3.3 2.64 5 4 C4.67 4.33 4.34 4.66 4 5 C4.66 5.66 5.32 6.32 6 7 C4.02 7 2.04 7 0 7 C-0.93423645 3.98968256 -1.04449911 3.13349732 0 0 Z " fill="#ECECF4" transform="translate(159,118)"/>
<path d="M0 0 C0.66 0 1.32 0 2 0 C2 0.66 2 1.32 2 2 C2.99 1.67 3.98 1.34 5 1 C4.67 2.32 4.34 3.64 4 5 C1.03 5.66 -1.94 6.32 -5 7 C-5.33 6.34 -5.66 5.68 -6 5 C-4.02 4.34 -2.04 3.68 0 3 C0 2.01 0 1.02 0 0 Z " fill="#B0B1D4" transform="translate(178,115)"/>
<path d="M0 0 C4.02992782 0.55312735 8.02022924 1.1558062 12 2 C12 2.66 12 3.32 12 4 C8.37 4.33 4.74 4.66 1 5 C1 4.34 1 3.68 1 3 C1.66 2.67 2.32 2.34 3 2 C2.01 1.34 1.02 0.68 0 0 Z " fill="#9A9CC9" transform="translate(178,104)"/>
<path d="M0 0 C1.98 0.495 1.98 0.495 4 1 C3.67 2.65 3.34 4.3 3 6 C1.68 5.67 0.36 5.34 -1 5 C-0.67 3.35 -0.34 1.7 0 0 Z " fill="#EAECF1" transform="translate(144,208)"/>
<path d="M0 0 C3.36591866 1.44253657 5.51047079 3.33264727 8 6 C6.02 6.99 6.02 6.99 4 8 C2 6.25 2 6.25 0 4 C0 2.68 0 1.36 0 0 Z " fill="#9193C4" transform="translate(158,113)"/>
<path d="M0 0 C0.66 0.33 1.32 0.66 2 1 C2 1.99 2 2.98 2 4 C-0.375 5.75 -0.375 5.75 -3 7 C-3.66 6.67 -4.32 6.34 -5 6 C-2.25 1.125 -2.25 1.125 0 0 Z " fill="#A7CFFA" transform="translate(216,232)"/>
<path d="M0 0 C1.32 0.66 2.64 1.32 4 2 C-1.14285714 6.42857143 -1.14285714 6.42857143 -5 7 C-3.75023244 3.34683329 -3.32901247 2.21934164 0 0 Z " fill="#ABD1FA" transform="translate(247,214)"/>
<path d="M0 0 C0.66 0.33 1.32 0.66 2 1 C2 1.99 2 2.98 2 4 C-0.375 5.75 -0.375 5.75 -3 7 C-3.66 6.67 -4.32 6.34 -5 6 C-2.25 1.125 -2.25 1.125 0 0 Z " fill="#A8CFFA" transform="translate(159,265)"/>
<path d="M0 0 C0 0.66 0 1.32 0 2 C-0.66 2.66 -1.32 3.32 -2 4 C-1.01 4.99 -0.02 5.98 1 7 C-3.75 6.125 -3.75 6.125 -6 5 C-6 4.01 -6 3.02 -6 2 C-2.25 0 -2.25 0 0 0 Z " fill="#79685D" transform="translate(98,116)"/>
<path d="M0 0 C1.32 0.33 2.64 0.66 4 1 C3.01 1.495 3.01 1.495 2 2 C2 2.66 2 3.32 2 4 C2.66 4.33 3.32 4.66 4 5 C4.33 5.66 4.66 6.32 5 7 C3.35 7.33 1.7 7.66 0 8 C0 5.36 0 2.72 0 0 Z " fill="#DDDDEC" transform="translate(149,101)"/>
<path d="M0 0 C0.99 0 1.98 0 3 0 C5 2 5 2 6 4 C5.39421747 6.01927511 4.73080266 8.02253397 4 10 C2.26337666 6.77484237 1.1094072 3.48670834 0 0 Z " fill="#ABACD2" transform="translate(152,93)"/>
<path d="M0 0 C0.66 0.33 1.32 0.66 2 1 C1.375 2.9375 1.375 2.9375 0 5 C-3.125 5.75 -3.125 5.75 -6 6 C-5 3 -5 3 -2.5625 1.25 C-1.716875 0.8375 -0.87125 0.425 0 0 Z " fill="#91C3F9" transform="translate(242,217)"/>
<path d="M0 0 C0 1.65 0 3.3 0 5 C-1.32 5 -2.64 5 -4 5 C-4.66 3.68 -5.32 2.36 -6 1 C-4 0 -4 0 0 0 Z " fill="#8994AE" transform="translate(134,210)"/>
<path d="M0 0 C2.31 0.33 4.62 0.66 7 1 C7 1.99 7 2.98 7 4 C1.25 4.125 1.25 4.125 -1 3 C-0.67 2.01 -0.34 1.02 0 0 Z " fill="#8E8FC1" transform="translate(171,109)"/>
<path d="M0 0 C1.32 0 2.64 0 4 0 C4 1.65 4 3.3 4 5 C2.68 5 1.36 5 0 5 C0 3.35 0 1.7 0 0 Z " fill="#F9FAFB" transform="translate(171,182)"/>
<path d="M0 0 C2.375 -0.125 2.375 -0.125 5 0 C7 2 7 2 7 6 C6.01 5.67 5.02 5.34 4 5 C4 4.34 4 3.68 4 3 C2.68 3 1.36 3 0 3 C0 2.01 0 1.02 0 0 Z " fill="#394A77" transform="translate(191,179)"/>
<path d="M0 0 C1.65 0.33 3.3 0.66 5 1 C4.67 1.99 4.34 2.98 4 4 C4.66 4.33 5.32 4.66 6 5 C3.03 4.67 0.06 4.34 -3 4 C-2.01 2.68 -1.02 1.36 0 0 Z " fill="#7779B5" transform="translate(170,112)"/>
<path d="M0 0 C-1 3 -1 3 -4.0625 4.6875 C-5.031875 5.120625 -6.00125 5.55375 -7 6 C-6.625 3.5625 -6.625 3.5625 -6 1 C-4 0 -4 0 0 0 Z " fill="#91C3F9" transform="translate(84,34)"/>
<path d="M0 0 C1.9375 0.8125 1.9375 0.8125 4 2 C4.33 2.99 4.66 3.98 5 5 C0.25 5.125 0.25 5.125 -2 4 C-1.34 2.68 -0.68 1.36 0 0 Z " fill="#929BB4" transform="translate(146,179)"/>
<path d="M0 0 C2.475 0.99 2.475 0.99 5 2 C4.34 3.65 3.68 5.3 3 7 C2.01 6.34 1.02 5.68 0 5 C-0.1875 2.375 -0.1875 2.375 0 0 Z " fill="#D9DAEA" transform="translate(181,82)"/>
<path d="M0 0 C2.0625 0.4375 2.0625 0.4375 4 1 C1.63707344 3.52588702 0.33537489 4.88820837 -3 6 C-1.125 1.125 -1.125 1.125 0 0 Z " fill="#92C4F9" transform="translate(95,25)"/>
<path d="M0 0 C2.475 0.495 2.475 0.495 5 1 C5.33 2.32 5.66 3.64 6 5 C4.68 5.33 3.36 5.66 2 6 C1.34 4.02 0.68 2.04 0 0 Z " fill="#6D70B1" transform="translate(155,109)"/>
<path d="M0 0 C1.65 1.65 3.3 3.3 5 5 C4.67 5.99 4.34 6.98 4 8 C3.01 7.67 2.02 7.34 1 7 C0.67 4.69 0.34 2.38 0 0 Z " fill="#B0B1D4" transform="translate(189,87)"/>
<path d="M0 0 C-0.33 0.99 -0.66 1.98 -1 3 C-4.5625 4.1875 -4.5625 4.1875 -8 5 C-7.67 4.01 -7.34 3.02 -7 2 C-4.56723614 0.81480735 -2.71982714 0 0 0 Z " fill="#4A5A83" transform="translate(91,178)"/>
<path d="M0 0 C3 2 3 2 3.8125 4.5 C3.874375 5.325 3.93625 6.15 4 7 C3.34 7.66 2.68 8.32 2 9 C0.14223235 5.86501708 -0.20140476 3.62528568 0 0 Z " fill="#F5F2E7" transform="translate(93,87)"/>
<path d="M0 0 C1.2065625 0.0309375 1.2065625 0.0309375 2.4375 0.0625 C1.4375 2.0625 0.4375 4.0625 -0.5625 6.0625 C-2.5625 5.0625 -2.5625 5.0625 -3.25 3.0625 C-3.353125 2.4025 -3.45625 1.7425 -3.5625 1.0625 C-2.5625 0.0625 -2.5625 0.0625 0 0 Z " fill="#D2D3E6" transform="translate(163.5625,83.9375)"/>
<path d="M0 0 C1.32 0.66 2.64 1.32 4 2 C2.35 3.32 0.7 4.64 -1 6 C-1.66 5.67 -2.32 5.34 -3 5 C-2.01 3.35 -1.02 1.7 0 0 Z " fill="#B0D4FA" transform="translate(202,240)"/>
<path d="M0 0 C1.67542976 0.28604898 3.34385343 0.61781233 5 1 C5.33 1.99 5.66 2.98 6 4 C5.01 4.33 4.02 4.66 3 5 C2.67 4.34 2.34 3.68 2 3 C1.01 2.34 0.02 1.68 -1 1 C-0.67 0.67 -0.34 0.34 0 0 Z " fill="#4D5C85" transform="translate(148,179)"/>
<path d="M0 0 C0.66 0 1.32 0 2 0 C2.33 1.65 2.66 3.3 3 5 C1.68 5.33 0.36 5.66 -1 6 C-1.042721 4.33388095 -1.04063832 2.66617115 -1 1 C-0.67 0.67 -0.34 0.34 0 0 Z " fill="#DBDBEB" transform="translate(194,125)"/>
<path d="M0 0 C0.99 0 1.98 0 3 0 C3 0.99 3 1.98 3 3 C0.69 3.33 -1.62 3.66 -4 4 C-4.33 3.01 -4.66 2.02 -5 1 C-3.35 1 -1.7 1 0 1 C0 0.67 0 0.34 0 0 Z " fill="#9293C3" transform="translate(174,115)"/>
<path d="M0 0 C0.99 0.66 1.98 1.32 3 2 C2.01 2 1.02 2 0 2 C0.66 2.33 1.32 2.66 2 3 C2 3.99 2 4.98 2 6 C0.35 5.67 -1.3 5.34 -3 5 C-2.01 3.35 -1.02 1.7 0 0 Z " fill="#ADAED2" transform="translate(186,85)"/>
<path d="M0 0 C1.9375 0.8125 1.9375 0.8125 4 2 C4.33 2.99 4.66 3.98 5 5 C2.03 4.505 2.03 4.505 -1 4 C-0.67 2.68 -0.34 1.36 0 0 Z " fill="#BBBCDA" transform="translate(158,86)"/>
<path d="M0 0 C0.66 0.33 1.32 0.66 2 1 C0.11192137 3.69725519 -1.19824644 5.13216429 -4 7 C-4 6.34 -4 5.68 -4 5 C-4.66 4.67 -5.32 4.34 -6 4 C-4.02 2.68 -2.04 1.36 0 0 Z " fill="#B4D6FA" transform="translate(112,15)"/>
</svg>
