<svg width="113" height="28" viewBox="0 0 113 28" fill="none" xmlns="http://www.w3.org/2000/svg">
<path d="M106.621 11.1258C103.444 14.4871 100.381 17.6993 97.3333 20.9211C96.7225 21.5607 96.2923 22.0127 95.672 22.9457C95.2036 23.6334 94.2442 25.1146 95.1492 25.495C95.9254 25.7358 96.5017 25.813 97.6828 24.808C100.718 22.1971 103.296 19.1435 105.871 16.1283C108.143 13.4642 109.831 11.3964 111.689 8.91495C112.557 7.75597 112.207 6.86111 110.904 6.25452C109.734 5.7105 108.542 5.13281 107.303 4.80524C102.841 3.60098 98.3726 2.51216 93.8906 1.37523C93.3345 1.23071 92.9075 1.08624 92.2267 1.00421C91.4012 0.912503 90.8028 0.801646 90.6057 1.53756C90.4109 2.23499 91.3624 2.78373 91.8917 2.97154C96.2861 4.63276 105.4 7.91685 105.851 8.19602C103.375 9.27743 101.11 10.3301 98.7717 11.2576C82.4516 17.6397 65.7197 22.8094 47.6527 23.9812C33.3513 24.909 19.0684 24.1725 4.76675 21.3098C3.92141 21.1459 3.05594 21.0494 2.22158 20.9721C1.09133 20.8514 0.494728 20.9811 0.429246 21.5391C0.454127 22.6118 1.2125 22.8815 1.80176 23.1463C2.97135 23.6903 4.25926 24.0082 5.50712 24.3214C22.2323 28.3443 38.8994 28.6007 55.5234 26.7357C72.5858 24.8227 88.2435 19.2677 103.376 12.3705C104.158 11.9763 106.198 11.1834 106.621 11.1258Z" fill="black"/>
</svg>
