<svg width="81" height="82" viewBox="0 0 81 82" fill="none" xmlns="http://www.w3.org/2000/svg">
<g opacity="0.5">
<rect x="6.52294" y="12.9321" width="68.1053" height="68.1053" rx="18" transform="rotate(-4.38258 6.52294 12.9321)" fill="black" stroke="black" stroke-width="4"/>
<rect x="0.853016" y="6.45165" width="68.1053" height="68.1053" rx="18" transform="rotate(-4.38258 0.853016 6.45165)" fill="white" stroke="black" stroke-width="4"/>
<path d="M26.6021 51.7724C26.4903 51.6765 26.4215 51.4598 26.3956 51.1222C26.3558 50.6029 26.3878 50.3393 26.4917 50.3313C26.6994 50.3154 26.995 50.2535 27.3786 50.1458C27.7621 50.038 28.1176 49.9063 28.4452 49.7506C28.7708 49.569 28.9546 49.4112 28.9966 49.2774C29.1066 48.6683 29.097 47.5198 28.9676 45.8321L27.8393 31.1096C27.7279 29.6555 27.5724 28.6489 27.3728 28.0896C27.3089 27.9377 27.0892 27.7979 26.7138 27.6699C26.3623 27.514 25.9878 27.3991 25.5904 27.3251C25.191 27.2251 24.8874 27.1831 24.6797 27.199C24.5758 27.207 24.506 26.9772 24.4701 26.5099C24.4383 26.0944 24.4583 25.8448 24.5303 25.7609C25.7027 25.7233 26.7713 25.6936 27.736 25.6719C28.6987 25.6243 29.5436 25.5726 30.2706 25.5168C31.9584 25.3875 34.1365 25.1814 36.805 24.8985C38.1532 24.7691 39.3206 24.6665 40.3073 24.5909C41.318 24.4873 42.1609 24.4097 42.836 24.358C42.8719 24.4858 43.0175 25.0231 43.2729 25.9699C43.5283 26.9167 43.9064 28.272 44.4072 30.0357C44.2874 30.1755 43.9937 30.2633 43.5264 30.2991C43.2407 30.321 43.052 30.2441 42.9602 30.0683C42.5969 29.4171 42.0837 28.8557 41.4207 28.3841C40.7817 27.8846 40.0868 27.5069 39.3359 27.2511C38.6089 26.9672 37.9079 26.8512 37.2328 26.9029L35.7528 27.0164C34.091 27.1437 33.26 27.3772 33.2599 27.7167C33.2319 28.0323 33.2118 28.4517 33.1997 28.975C33.2115 29.4703 33.2443 30.0685 33.298 30.7696L33.7577 36.7676C33.7697 36.9234 34.3339 36.9585 35.4504 36.873L37.5147 36.7148C39.1505 36.5894 40.0293 36.4698 40.1512 36.356C40.2711 36.2162 40.3461 35.8318 40.3762 35.2026C40.3963 34.7832 40.4454 34.4007 40.5234 34.0552C40.5354 33.8715 40.7232 33.7657 41.0867 33.7378C41.5281 33.704 41.8187 33.747 41.9585 33.8669L42.5226 41.2281C42.4267 41.3399 42.1581 41.4127 41.7167 41.4466C41.3791 41.4724 41.1634 41.3845 41.0696 41.1827C40.6804 40.194 40.4249 39.5867 40.3032 39.361C40.1854 39.1872 40.1015 39.1153 40.0516 39.1452C40.0256 39.1472 39.9437 39.1012 39.8059 39.0073C39.4265 38.8275 38.4059 38.8012 36.7441 38.9286C34.8746 39.0719 33.9488 39.2603 33.9667 39.494L34.4264 45.4921C34.5318 46.8682 34.7043 47.9259 34.9438 48.6649C35.0116 48.8687 35.2463 49.0335 35.6477 49.1595C36.0491 49.2854 36.4865 49.3694 36.9598 49.4115C37.4332 49.4536 37.7997 49.4647 38.0593 49.4448C38.1632 49.4368 38.234 49.6795 38.2718 50.1728C38.2917 50.4325 38.2837 50.6682 38.2477 50.8799C35.1199 50.9629 33.1275 51.0372 32.2707 51.1029L26.6021 51.7724Z" fill="black"/>
</g>
</svg>
