<svg width="41" height="41" viewBox="0 0 41 41" fill="none" xmlns="http://www.w3.org/2000/svg">
<path d="M20.2384 0.0605469C9.14085 0.0605469 0.142578 9.38627 0.142578 20.878C0.142578 30.0769 5.90219 37.871 13.8867 40.6261C13.9987 40.6507 14.113 40.6628 14.2276 40.6623C14.9722 40.6623 15.2593 40.1095 15.2593 39.6292C15.2593 39.1307 15.2414 37.8257 15.2324 36.0856C14.5677 36.243 13.8876 36.3251 13.2049 36.3303C9.33822 36.3303 8.45903 33.2942 8.45903 33.2942C7.54395 30.8925 6.22516 30.2491 6.22516 30.2491C4.47575 29.0075 6.21619 28.9712 6.35076 28.9712H6.35973C8.37829 29.1525 9.43691 31.1282 9.43691 31.1282C10.4417 32.9045 11.7874 33.403 12.9896 33.403C13.7845 33.3869 14.5671 33.2016 15.2862 32.8592C15.4657 31.5179 15.986 30.6025 16.5602 30.0769C12.1014 29.5512 7.40938 27.7658 7.40938 19.7905C7.40938 17.5157 8.18989 15.6578 9.47279 14.2077C9.26645 13.6821 8.57566 11.5614 9.67016 8.69749C9.81698 8.662 9.96787 8.64676 10.1187 8.65218C10.8454 8.65218 12.4872 8.93313 15.1965 10.8363C18.4886 9.90586 21.9703 9.90586 25.2624 10.8363C27.9717 8.93313 29.6135 8.65218 30.3402 8.65218C30.491 8.64676 30.6419 8.662 30.7887 8.69749C31.8833 11.5614 31.1925 13.6821 30.9861 14.2077C32.269 15.6669 33.0495 17.5248 33.0495 19.7905C33.0495 27.784 28.3485 29.5422 23.8718 30.0588C24.5895 30.7022 25.2355 31.971 25.2355 33.9105C25.2355 36.6928 25.2086 38.9404 25.2086 39.6201C25.2086 40.1095 25.4867 40.6623 26.2313 40.6623C26.3518 40.6629 26.4721 40.6507 26.5901 40.6261C34.5836 37.871 40.3343 30.0678 40.3343 20.878C40.3343 9.38627 31.336 0.0605469 20.2384 0.0605469Z" fill="black"/>
</svg>
