<svg width="51" height="54" viewBox="0 0 51 54" fill="none" xmlns="http://www.w3.org/2000/svg">
<path d="M47.3597 27.1793C47.3597 25.5604 47.215 24.0039 46.9463 22.5096H25.5312V31.3508H37.7684C37.231 34.1941 35.6186 36.6016 33.2001 38.2204V43.9693H40.5797C44.8792 39.9845 47.3597 34.1319 47.3597 27.1793Z" fill="#4285F4"/>
<path d="M25.5312 49.4895C31.6705 49.4895 36.8175 47.4556 40.5796 43.9689L33.2001 38.22C31.1744 39.5898 28.5905 40.42 25.5312 40.42C19.6194 40.42 14.5963 36.4144 12.798 31.0184H5.23242V36.9125C8.97385 44.3633 16.6427 49.4895 25.5312 49.4895Z" fill="#34A853"/>
<path d="M12.7985 30.9977C12.3437 29.628 12.075 28.1752 12.075 26.6601C12.075 25.1451 12.3437 23.6923 12.7985 22.3225V16.4283H5.23293C3.68261 19.5 2.79376 22.9659 2.79376 26.6601C2.79376 30.3544 3.68261 33.8203 5.23293 36.8919L11.1241 32.2845L12.7985 30.9977Z" fill="#FBBC05"/>
<path d="M25.5312 12.9212C28.8799 12.9212 31.8565 14.0834 34.2337 16.3248L40.745 9.7873C36.7969 6.09307 31.6705 3.83087 25.5312 3.83087C16.6427 3.83087 8.97385 8.95714 5.23242 16.4286L12.798 22.3228C14.5963 16.9267 19.6194 12.9212 25.5312 12.9212Z" fill="#EA4335"/>
</svg>
