<svg width="81" height="83" viewBox="0 0 81 83" fill="none" xmlns="http://www.w3.org/2000/svg">
<g opacity="0.5">
<rect x="11.7399" y="8.14456" width="68.1053" height="68.1053" rx="18" transform="rotate(4.85474 11.7399 8.14456)" fill="black" stroke="black" stroke-width="4"/>
<rect x="7.18425" y="0.837915" width="68.1053" height="68.1053" rx="18" transform="rotate(4.85474 7.18425 0.837915)" fill="white" stroke="black" stroke-width="4"/>
<path d="M25.2854 49.7C25.1905 49.5874 25.1573 49.3624 25.186 49.0251C25.23 48.5061 25.278 48.2489 25.3299 48.2533C25.5375 48.2709 25.8392 48.2573 26.235 48.2125C26.659 48.144 27.0463 48.0462 27.3969 47.9192C27.7474 47.7921 27.9541 47.666 28.0171 47.5406C28.2538 46.9074 28.4339 45.8642 28.5573 44.4111L29.8201 29.5427C29.959 27.908 29.9541 26.8883 29.8055 26.4836C29.7453 26.2694 29.5531 26.0702 29.229 25.8858C28.9309 25.7037 28.6035 25.5583 28.2468 25.4496C27.9183 25.3171 27.6503 25.2421 27.4427 25.2245C27.3389 25.2156 27.309 24.9518 27.3531 24.4328C27.3862 24.0436 27.4308 23.8252 27.4871 23.7777L32.8775 24.4708C33.2126 24.5254 33.8495 24.5664 34.788 24.5938C35.7525 24.6235 37.0165 24.6655 38.58 24.7199C38.649 24.8303 38.6648 25.1061 38.6274 25.5472C38.5921 25.9623 38.5226 26.1655 38.4188 26.1567C38.2631 26.1435 37.9862 26.1722 37.5882 26.243C37.2161 26.3159 36.8418 26.4148 36.4653 26.5396C36.1169 26.6407 35.9113 26.7539 35.8484 26.8793C35.5923 27.4325 35.3949 28.5265 35.256 30.1612L34.7866 35.6882L34.8545 35.8116L39.5186 36.2861C39.8819 36.317 40.4398 36.3644 41.1923 36.4283C41.947 36.4662 42.9092 36.5218 44.0791 36.5951C44.1354 36.5476 44.1658 36.4979 44.1702 36.446L44.6495 30.8022C44.7685 29.401 44.7648 28.3684 44.6382 27.7042C44.5996 27.5441 44.4182 27.3719 44.0941 27.1876C43.7959 27.0054 43.4696 26.8471 43.1152 26.7124C42.7607 26.5778 42.4797 26.5016 42.2721 26.484C42.2202 26.4796 42.1771 26.3714 42.1428 26.1594C42.1345 25.9496 42.1533 25.729 42.199 25.4977C42.247 25.2404 42.2992 25.088 42.3555 25.0406L48.1351 25.7667C48.5243 25.7997 50.2824 25.8706 53.4094 25.9794C53.4674 26.2196 53.4865 26.4564 53.4667 26.6899C53.4248 27.183 53.339 27.424 53.2093 27.4129C53.0536 27.3997 52.7767 27.4285 52.3787 27.4992C52.0066 27.5721 51.6453 27.6721 51.2947 27.7992C50.9464 27.9003 50.7407 28.0135 50.6778 28.1388C50.541 28.5192 50.4235 28.9797 50.3253 29.5202C50.2271 30.0607 50.1472 30.6942 50.0854 31.4208L48.8491 45.9777C48.7896 46.6783 48.7626 47.3033 48.7682 47.8526C48.7738 48.4019 48.8109 48.8886 48.8794 49.3126C48.9225 49.4208 49.0931 49.5659 49.3913 49.7481C49.7176 49.9065 50.058 50.053 50.4124 50.1876C50.7929 50.3245 51.0609 50.3995 51.2166 50.4127C51.3204 50.4216 51.3491 50.6984 51.3029 51.2433C51.2852 51.4509 51.2276 51.6682 51.1299 51.8951C51.0261 51.8863 50.7807 51.8524 50.3937 51.7934C50.0067 51.7344 49.491 51.6514 48.8467 51.5444C48.2024 51.4374 47.6348 51.35 47.144 51.2821C46.6532 51.2143 46.2391 51.1661 45.9018 51.1374C45.5645 51.1088 45.0963 51.0821 44.4973 51.0573C43.9242 51.0348 43.3241 51.023 42.697 51.022C42.0979 50.9973 41.5508 50.977 41.0556 50.961C40.5582 50.9711 40.2316 50.9695 40.0759 50.9562C40.0307 50.874 40.005 50.715 39.9988 50.4793C39.9927 50.2435 40.0115 50.023 40.055 49.8176C40.1246 49.6144 40.1853 49.515 40.2372 49.5194C40.4448 49.537 40.7476 49.5105 41.1456 49.4398C41.5437 49.369 41.9179 49.2701 42.2685 49.1431C42.6213 48.9901 42.8291 48.851 42.892 48.7256C43.0984 48.142 43.2633 47.1237 43.3867 45.6706L43.9388 39.1706L43.8742 39.0083L39.3269 38.5436C36.1071 38.2963 34.495 38.1986 34.4906 38.2505L34.5618 38.3349L34.0196 44.7182C33.9623 45.3928 33.9365 46.0048 33.9421 46.5542C33.9477 47.1035 33.9848 47.5901 34.0533 48.0141C34.0964 48.1223 34.267 48.2675 34.5652 48.4496C34.8893 48.634 35.2275 48.8064 35.5797 48.967C35.9601 49.1039 36.2282 49.1789 36.3839 49.1921C36.4877 49.201 36.523 49.4 36.49 49.7892C36.4829 50.1806 36.4327 50.4638 36.3394 50.6389C35.0745 50.453 34.0032 50.2967 33.1254 50.1699C32.2757 50.0193 31.5005 49.9143 30.7999 49.8548C29.9436 49.782 29.0711 49.7471 28.1822 49.75C27.3215 49.7292 26.3559 49.7125 25.2854 49.7Z" fill="black"/>
</g>
</svg>
