<svg width="119" height="56" viewBox="0 0 119 56" fill="none" xmlns="http://www.w3.org/2000/svg">
<path d="M8.54138 10.0149C18.559 13.4467 28.5605 16.8927 38.6137 20.2347C39.3089 20.4706 40.4388 20.0606 41.0799 19.5838C56.2988 8.11401 73.022 6.16819 90.8821 13.134C93.8512 14.2918 96.5079 16.3973 98.7328 19.3801C101.676 23.3093 100.862 28.1489 96.9269 30.9413C93.4873 33.3849 89.5141 34.0176 85.4252 34.2257C76.3697 34.6547 67.4892 32.9703 58.6865 30.9836C53.1068 29.7265 47.6065 28.1362 41.8995 26.6695C40.9528 29.1113 41.6525 32.4135 43.4964 34.182C46.9777 37.5499 49.3081 38.5683 52.7815 40.3641C63.6809 46.0022 75.4402 48.8069 87.4774 49.8757C96.4364 50.6722 105.43 50.8242 114.409 51.2524C115.191 51.2945 115.993 51.2609 116.727 51.3456C117.874 51.4761 118.666 51.9194 118.799 52.8843C119.088 53.7992 117.821 54.4765 117.112 54.7788C115.947 55.2787 114.639 55.5524 113.374 55.6136C93.4315 56.7683 73.7903 55.172 54.9987 47.2134C50.8766 45.4625 46.9585 43.0641 43.2649 40.4972C37.9703 36.796 35.254 31.7896 37.2302 25.0787C27.8066 21.4748 18.5184 17.9271 9.06406 14.321C11.2395 16.7918 13.2989 19.1308 15.3728 21.4862C15.7208 21.8815 16.1174 22.2342 16.4331 22.658C17.2951 23.7997 18.7523 25.0314 17.321 26.467C15.9221 27.8742 14.6442 26.4553 13.8014 25.5307C9.49705 20.8699 5.22664 16.15 1.14839 11.2901C-0.514489 9.30375 -0.0813306 7.25564 2.32686 6.53888C9.27389 4.39903 16.3577 2.57736 23.4237 0.800609C24.079 0.63303 25.5132 0.861594 25.8876 2.19867C26.0768 3.26022 24.9639 4.21076 24.2424 4.46592C19.8826 5.99458 15.4406 7.33235 11.0115 8.71728C10.2287 8.96793 9.41685 9.18564 8.61951 9.41982C7.22522 9.59476 7.75591 9.74157 8.54138 10.0149ZM44.766 21.7187C44.141 22.1813 45.6833 22.4024 45.9107 22.4653C57.8131 25.7581 69.7821 28.6707 82.1397 28.9311C85.4441 29.0042 88.8718 28.501 92.0305 27.562C96.2223 26.2983 96.783 22.7343 93.2703 19.9497C90.9973 18.1496 88.345 16.5374 85.6078 15.6431C73.9965 11.8016 59.4133 13.4424 51.5799 17.4738C48.6027 19.0424 47.9244 19.6396 44.766 21.7187Z" fill="black"/>
</svg>
