<svg width="287" height="278" viewBox="0 0 287 278" fill="none" xmlns="http://www.w3.org/2000/svg">
<path d="M186.449 251.896C201.619 247.886 216.95 242.821 231.372 236.476C242.686 231.436 255.394 224.35 257.287 212.659C258.694 204.255 254.901 195.826 251.377 187.799C245.967 176.006 240.409 164.366 235.535 152.425C224.682 125.806 217.097 98.3946 194.002 78.0373C180.13 65.2397 150.505 43.8719 130.558 41.4288C116.711 40.284 105.954 49.5576 93.8083 55.5056C86.7027 59.1767 78.9576 61.5047 70.8671 63.1867C56.7328 66.1223 29.1677 67.3439 24.1279 81.9451C19.4143 100.921 44.2741 126.612 56.4642 141.751C65.3477 152.45 73.9626 163.694 78.0558 176.492C81.0937 185.695 81.7013 195.333 81.6438 204.863C81.7141 220.935 79.028 239.169 94.1408 250.028C115.918 265.333 161.32 258.285 186.321 251.934L186.449 251.902V251.896Z" fill="white"/>
<path d="M249.504 236.726C249.504 236.726 166.374 274.006 136.941 275.739C136.941 275.739 117.754 253.354 114.557 231.609L60.1938 249.517C60.1938 249.517 67.8685 170.851 2 74.9165C4.72454 78.8818 14.0558 75.2555 17.4518 74.4241C24.8196 72.6205 32.117 70.5227 39.3121 68.1308C59.3943 61.4729 78.6644 52.4167 96.7064 41.3715C105.603 35.9224 114.198 29.9873 122.449 23.6108C129.874 17.8675 139.263 11.5039 142.058 2C141.412 4.20649 149.649 12.6999 150.903 14.4011C154.791 19.6967 158.616 25.0434 162.37 30.4349C186.968 65.7644 207.536 103.185 222.169 143.753C233.132 174.164 240.634 205.662 249.504 236.713V236.726Z" stroke="black" stroke-width="4" stroke-linecap="round" stroke-linejoin="round"/>
<path d="M136.941 275.739C115.196 277.018 71.7055 265.506 60.1934 249.517L114.556 231.609C117.754 253.354 136.941 275.739 136.941 275.739Z" stroke="black" stroke-width="4" stroke-linecap="round" stroke-linejoin="round"/>
<path d="M50.582 91.9225C51.7844 92.9906 53.6136 91.7754 54.688 90.5858C55.7625 89.3962 57.4317 88.0596 58.7684 88.9486C59.2481 89.2683 59.5359 89.8184 60.0092 90.1509C61.186 90.9824 62.8297 90.0934 63.7762 89.0061C64.7228 87.9189 65.5222 86.5374 66.9037 86.1153C68.7136 85.5589 70.6195 86.9339 72.4934 86.6525C75.0517 86.2752 76.8489 82.9559 79.3687 83.5251C80.5136 83.7809 81.5369 84.849 82.6689 84.542C83.3596 84.3565 83.8073 83.7105 84.1974 83.1093C85.419 81.2226 86.6406 79.3359 87.8621 77.4492" stroke="black" stroke-miterlimit="10"/>
<path d="M61.166 110.566C64.7156 108.257 69.2757 107.572 73.3433 108.743C74.1939 108.986 75.0765 109.312 75.9399 109.12C77.4749 108.781 78.1912 107.067 79.2976 105.954C81.1396 104.1 84.0368 103.972 86.6462 103.857C103.025 103.14 119.219 98.5481 133.539 90.56C135.355 89.5495 137.184 88.4622 139.225 88.0849C142.077 87.5541 144.974 88.4494 147.846 88.814C150.718 89.1785 154.069 88.7948 155.802 86.4668" stroke="black" stroke-miterlimit="10"/>
<path d="M72.7109 130.802C73.9901 127.055 77.3925 124.317 81.1148 122.961C84.837 121.605 88.8855 121.465 92.8508 121.541C94.5328 121.573 96.2916 121.631 97.8138 120.915C100.404 119.693 101.555 116.642 103.717 114.762C108.462 110.637 115.984 113.342 121.932 111.296C123.14 110.88 124.317 110.26 125.59 110.253C127.067 110.253 128.404 111.065 129.805 111.558C140.121 115.171 150.424 100.66 160.721 104.331" stroke="black" stroke-miterlimit="10"/>
<path d="M83.8711 151.729L91.4947 145.212C92.6331 144.24 93.8483 143.229 95.3193 142.98C96.7903 142.731 98.5618 143.581 98.7409 145.065C101.926 140.735 108.449 140.741 112.786 137.569C113.566 136.994 114.276 136.322 115.127 135.842C116.706 134.953 118.587 134.851 120.397 134.755C131.243 134.167 142.058 132.926 152.758 131.039C154.843 130.675 156.967 130.265 158.821 129.242C160.158 128.507 161.322 127.464 162.716 126.831C166.445 125.13 170.743 126.697 174.772 127.464C178.801 128.232 184.02 127.464 185.318 123.582" stroke="black" stroke-miterlimit="10"/>
<path d="M95.0684 176.319C95.2474 172.61 98.0487 169.182 101.643 168.261C105.199 167.353 109.427 168.612 112.337 166.374C113.686 165.338 114.607 163.617 116.257 163.183C117.734 162.792 119.225 163.579 120.67 164.059C124.642 165.376 129.016 164.372 132.911 162.831C136.806 161.289 140.528 159.224 144.622 158.335C150.614 157.024 157.893 157.925 161.832 153.225" stroke="black" stroke-miterlimit="10"/>
<path d="M103.959 219.207C106.006 218.746 107.048 216.553 108.123 214.749C109.197 212.946 111.244 211.136 113.149 211.999C114.294 212.517 114.927 213.867 116.117 214.276C118.279 215.024 120.07 212.287 122.314 211.839C123.235 211.654 124.182 211.871 125.109 212.05C126.875 212.389 128.761 212.562 130.424 211.871C132.087 211.18 133.411 209.402 133.033 207.644C134.927 208.68 137.645 206.915 137.472 204.766" stroke="black" stroke-miterlimit="10"/>
<path d="M251.408 128.915C234.012 147.271 215.938 163.471 198.849 182.805C197.871 183.911 196.841 185.126 196.31 186.764C193.56 195.231 206.038 187.032 207.867 186.015C212.613 183.387 217.333 180.31 222.065 177.477C226.504 174.823 230.923 171.855 235.291 168.606C243.906 162.198 252.355 154.562 260.324 145.486C265.645 139.417 271.44 132.97 275.789 125.014C276.914 122.948 277.969 120.671 278.404 118.26C278.814 111.903 276.166 109.773 272.316 110.4C265.46 112.216 257.465 122.532 251.421 128.915H251.408Z" fill="#FF4848"/>
<path d="M284.999 117.447C280.893 115.343 277.746 112.414 274.83 109.062L192.32 183.13L189.602 194.649L200.57 193.242L284.999 117.447Z" stroke="black" stroke-width="3" stroke-linecap="round" stroke-linejoin="round"/>
</svg>
