<svg width="73" height="98" viewBox="0 0 73 98" fill="none" xmlns="http://www.w3.org/2000/svg">
<path d="M65.6972 65.9769C62.843 64.6616 60.3981 63.6084 58.0239 62.4214C53.9892 60.4247 50.0934 58.2732 47.1463 54.6944C44.1599 51.0607 43.4709 47.0324 45.4702 42.8849C46.7017 40.3402 48.6206 38.1362 50.3112 35.8458C50.977 34.9537 51.9051 34.2346 53.0874 33.0565C50.6116 33.1625 48.6681 33.2762 46.7221 33.3086C41.967 33.4078 37.2121 33.7011 32.4779 33.4804C25.989 33.2106 22.714 29.3671 23.2146 22.8519C23.4127 20.2973 24.2377 17.7659 24.8057 15.2242C24.9811 14.4609 25.264 13.7316 25.5416 12.8397C21.3722 14.5727 17.4336 16.2793 13.4582 17.8181C4.17784 21.4025 -0.0346903 14.9288 0.208658 8.01504C0.273375 6.16595 0.794447 4.29568 1.27358 2.48312C1.63497 1.28172 2.58925 0.405279 3.91132 0.819067C5.11271 1.18046 5.27586 2.33964 5.11379 3.50948C4.97007 4.66618 4.74504 5.82555 4.73246 6.97171C4.71996 8.31195 4.72059 9.67055 4.97036 10.9897C5.68022 14.698 7.67942 16.0976 11.3561 15.1884C13.9524 14.5525 16.4671 13.5311 18.9583 12.5543C21.2764 11.6457 23.5656 10.6192 25.8548 9.59261C27.0401 9.078 28.2516 8.60009 29.4008 9.47032C30.7231 10.4664 30.3749 11.8802 30.0608 13.1865C29.6708 14.8521 29.0342 16.4444 28.7386 18.1258C28.3383 20.2425 27.9826 22.3829 27.9206 24.5074C27.8459 27.3898 28.8903 28.6955 31.7415 29.1531C34.4668 29.5899 37.2811 29.8797 40.0481 29.8706C45.9756 29.8206 51.8715 29.5714 57.7857 29.309C59.1862 29.2506 60.3325 29.4573 60.9389 30.771C61.5244 32.0166 60.8744 33.0083 59.9699 33.8768C58.355 35.4198 56.6509 36.9155 55.12 38.5371C53.783 39.9645 52.4356 41.4549 51.3872 43.092C48.575 47.4602 49.0591 50.7751 52.7406 54.4112C55.5036 57.1507 58.7096 59.2685 62.1777 60.9769C64.6725 62.2163 67.2433 63.2905 69.7722 64.4224C71.1127 65.0171 72.4978 65.6354 72.4121 67.4163C72.3106 69.0976 70.968 69.7801 69.6228 70.3814C69.0486 70.6256 68.4402 70.7832 67.8449 70.9592C66.6412 71.2928 65.4401 71.7078 64.2075 71.9234C55.0522 73.5879 51.0318 79.8739 49.5171 88.3068C49.2424 89.8622 49.453 91.5145 49.4931 93.1222C49.5066 93.9169 49.7587 94.7351 49.6778 95.5141C49.6334 96.0728 49.3217 96.8781 48.9074 97.0357C48.4563 97.2195 47.6694 96.8946 47.2103 96.6404C46.2212 96.0717 45.5178 94.8551 45.2707 93.8113C44.7898 91.7422 44.4242 89.5628 44.5623 87.4672C44.8486 82.8247 46.5121 78.5567 48.9364 74.5769C51.0042 71.1847 54.1506 69.1847 57.8376 68.0184C60.2555 67.2882 62.7049 66.7573 65.6972 65.9769Z" fill="black"/>
</svg>
