<svg width="143" height="132" viewBox="0 0 143 132" fill="none" xmlns="http://www.w3.org/2000/svg">
<path d="M55.9169 11.3502C57.1715 16.2936 58.1278 20.5109 59.3213 24.6447C61.3163 31.665 63.6032 38.496 68.4794 44.1207C73.4325 49.8221 79.7189 51.8852 87.0135 49.6105C91.4905 48.2069 95.6269 45.6073 99.8333 43.3985C101.474 42.5264 102.915 41.1877 105.174 39.5437C104.251 43.5396 103.478 46.669 102.835 49.8218C101.232 57.5207 99.3158 65.1739 98.2349 72.9139C96.7005 83.5149 101.904 89.7342 112.562 90.4482C116.741 90.7252 121.073 89.9787 125.344 89.652C126.628 89.5461 127.89 89.2575 129.413 89.0157C125.353 95.3806 121.405 101.377 117.718 107.472C109.121 121.703 118.281 130.062 129.504 131.287C132.505 131.615 135.679 131.207 138.747 130.854C140.794 130.549 142.497 129.204 142.231 126.96C142.013 124.924 140.193 124.388 138.257 124.377C136.349 124.339 134.411 124.433 132.559 124.185C130.394 123.891 128.203 123.571 126.152 122.857C120.388 120.835 118.738 117.26 121.32 111.502C123.133 107.435 125.544 103.59 127.875 99.7738C130.043 96.2221 132.393 92.7451 134.744 89.2681C135.933 87.4639 137.071 85.6084 136.017 83.5382C134.812 81.1573 132.427 81.3914 130.225 81.5954C127.421 81.8384 124.66 82.499 121.859 82.585C118.324 82.739 114.765 82.8151 111.321 82.4178C106.65 81.8636 104.862 79.8614 104.989 75.1239C105.112 70.5958 105.499 65.9573 106.353 61.4659C108.233 51.8516 110.424 42.3352 112.642 32.7921C113.162 30.5313 113.176 28.6214 111.242 27.3286C109.411 26.0859 107.615 26.9091 105.94 28.1743C102.962 30.4353 100.032 32.8522 96.953 34.9584C94.2456 36.795 91.4334 38.6339 88.4754 39.9527C80.5782 43.496 75.3798 41.9328 70.634 35.1021C67.0552 29.9729 64.6134 24.2701 62.9112 18.2376C61.6698 13.8955 60.718 9.46884 59.6604 5.09673C59.1082 2.78036 58.5316 0.386051 55.6339 0.107886C52.8921 -0.121282 51.384 1.89901 50.0062 3.94269C49.4382 4.81808 48.9993 5.76917 48.5349 6.69466C47.6315 8.57125 46.5979 10.4245 45.8761 12.3756C40.4135 26.8536 29.0571 31.9095 14.9994 32.3929C12.4079 32.4745 9.80756 31.7452 7.22726 31.3033C5.94991 31.0952 4.70713 30.4939 3.42644 30.4428C2.51213 30.3839 1.11892 30.7014 0.739111 31.3373C0.305827 32.0267 0.590813 33.3809 0.861362 34.186C1.47818 35.9255 3.2265 37.3531 4.83456 37.9988C8.02508 39.2648 11.4283 40.3692 14.8494 40.6362C22.4222 41.2592 29.8093 39.558 36.9625 36.5539C43.06 33.9908 47.2399 29.3499 50.2395 23.6354C52.1509 19.88 53.7504 16.0266 55.9169 11.3502Z" fill="black" fill-opacity="0.9"/>
</svg>
