<svg width="147" height="191" viewBox="0 0 147 191" fill="none" xmlns="http://www.w3.org/2000/svg">
<path d="M74.0637 97.5276C73.4607 98.6021 73.1319 99.459 72.4494 100.33C65.6326 109.125 54.0974 117.505 40.8269 125.699C39.2652 126.658 37.289 127.616 35.0533 128.346C33.8496 128.741 31.3836 128.946 29.9497 128.814C28.8737 128.71 28.0302 127.971 28.2186 127.487C28.5411 126.567 29.3304 125.58 30.4818 124.662C38.0457 118.602 45.6702 112.558 53.4141 106.522C56.3262 104.266 59.4162 102.013 62.4475 99.7663C63.4378 99.0123 64.5473 98.2675 65.7197 97.5586C67.0009 96.7544 69.0126 96.1519 71.108 96.3862C72.4854 96.5443 73.9717 96.6071 74.0637 97.5276Z" fill="black"/>
<path d="M121.82 125.157C122.224 126.311 122.635 127.17 122.849 128.183C125.053 138.385 124.2 150.127 122.201 162.408C121.962 163.849 121.479 165.456 120.685 166.973C120.258 167.792 118.957 168.955 118.025 169.419C117.322 169.763 116.307 169.473 116.076 168.987C115.617 168.077 115.384 166.922 115.411 165.681C115.572 157.501 115.779 149.31 116.062 141.079C116.179 137.996 116.401 134.843 116.594 131.719C116.642 130.682 116.767 129.604 116.955 128.532C117.138 127.335 117.892 126.016 119.284 125.374C120.203 124.956 121.117 124.412 121.82 125.157Z" fill="black"/>
<path d="M58.8257 49.8961C57.4761 50.2557 56.4608 50.649 55.2889 50.8052C43.4867 52.4334 30.2194 50.4587 16.4471 47.1351C14.8317 46.7401 13.0508 46.0546 11.4003 45.0221C10.5101 44.4673 9.30979 42.8909 8.86968 41.7923C8.54477 40.9642 8.96874 39.8362 9.54297 39.6162C10.6204 39.1729 11.9551 39.0068 13.3635 39.1446C22.6457 40.0285 31.9367 40.9658 41.266 41.9932C44.7605 42.3893 48.3229 42.9124 51.8557 43.3987C53.0304 43.543 54.2435 43.7774 55.4447 44.082C56.7879 44.3933 58.2164 45.3623 58.8159 46.9984C59.2058 48.0769 59.7376 49.1622 58.8257 49.8961Z" fill="black"/>
</svg>
