<svg width="380" height="248" viewBox="0 0 380 248" fill="none" xmlns="http://www.w3.org/2000/svg">
<path d="M284.597 52.5631C282.131 53.7797 279.694 55.0373 277.306 56.3997C272.444 59.1747 270.754 62.5193 275.342 66.6658C276.007 67.2673 276.723 67.8141 277.447 68.3381C287.472 75.6286 289.75 77.907 289.75 82.0079C289.75 86.1089 302.509 89.7542 305.243 89.2985C307.977 88.8428 319.824 84.7419 333.494 90.6655C347.163 96.5891 361.289 81.5522 364.479 68.7937C367.668 56.0352 371.314 22.7719 372.681 15.937C374.048 9.10209 372.681 3.63416 340.329 22.3163C326.185 30.4863 311.996 38.5879 297.533 46.1838C293.277 48.4211 288.903 50.4306 284.597 52.5585V52.5631Z" fill="#FF8E12"/>
<path d="M2 232.153C26.6057 244.912 53.4442 254.708 82.7432 232.153C112.042 209.598 101.562 154.463 83.7912 146.261C66.0204 138.059 43.693 145.805 43.693 167.222C43.693 188.638 73.311 209.142 86.5252 211.876C99.7394 214.61 136.648 224.179 159.431 193.194C182.214 162.209 152.14 137.148 143.939 146.717C135.737 156.286 149.406 177.702 179.48 179.069C209.554 180.436 247.829 150.818 267.423 128.49C287.016 106.163 298.863 92.9487 298.863 89.3034C298.863 85.6581 298.408 77.9119 311.622 85.6581C324.836 93.4044 336.683 96.594 339.417 100.239C342.151 103.885 348.075 104.34 349.442 97.0497C350.809 89.7591 373.592 30.0674 375.414 16.3976C377.237 2.72776 382.705 -6.38546 363.567 13.6636C344.429 33.7127 302.509 71.9883 301.597 74.2666C300.686 76.5449 291.117 85.2025 289.75 92.4931C288.383 99.7836 287.016 102.062 281.093 92.0374C275.169 82.0128 277.903 79.2789 286.105 72.444C294.307 65.609 361.745 11.3853 363.112 9.56268C364.479 7.74004 384.072 -5.9298 358.555 8.65136C333.038 23.2325 251.93 60.5968 248.285 62.4194C244.64 64.2421 230.97 67.8873 247.829 71.077C264.689 74.2666 271.068 76.0892 271.068 76.0892" stroke="black" stroke-width="3" stroke-linecap="round" stroke-linejoin="round"/>
</svg>
