<svg width="58" height="84" viewBox="0 0 58 84" fill="none" xmlns="http://www.w3.org/2000/svg">
<path fill-rule="evenodd" clip-rule="evenodd" d="M13.8884 83.1426C14.9593 83.0826 16.0378 82.9728 17.075 82.7341C20.7302 81.8667 32.7974 78.3416 35.1685 77.4607C35.8988 77.2258 36.6735 76.8345 37.2427 76.3197C38.2513 75.4028 37.8952 74.0005 36.558 73.601C36.0816 73.4461 35.5109 73.4401 34.9892 73.513C33.4742 73.7395 31.9729 74.009 30.4993 74.3644C26.0639 75.4589 21.614 76.5818 17.2131 77.7838C15.7533 78.1821 14.3411 78.8021 12.9573 79.4368C11.9248 79.911 11.3918 81.0541 11.7187 81.8495C12.1155 82.7884 12.9318 83.1895 13.8884 83.1426ZM32.0436 44.6381L32.0432 44.6381C31.367 44.6954 30.7597 44.7469 30.1432 44.7355C20.9975 44.5956 12.2082 42.4688 3.58375 39.6017C2.57416 39.2627 1.55918 38.7597 0.774318 38.0878C0.350047 37.7265 0.102907 36.8106 0.216359 36.2053C0.306818 35.7496 1.05469 35.201 1.55485 35.135C2.5053 34.9952 3.5325 35.0204 4.49373 35.209C10.8381 36.4394 17.1678 37.6981 23.4899 39.0067C25.3396 39.3949 27.1888 39.8268 29.0347 40.2578L29.0348 40.2579C29.5476 40.3776 30.0601 40.4973 30.5722 40.616C31.3624 40.7885 32.1449 41.0108 32.8914 41.2685C33.7376 41.5415 34.3874 42.162 34.1781 43.0588C34.1645 43.1155 34.1517 43.1724 34.1391 43.2292C34.0198 43.7632 33.9033 44.2847 33.0491 44.5594C32.6934 44.583 32.3609 44.6112 32.0436 44.6381ZM55.2509 3.86093C55.3043 4.224 55.3687 4.60473 55.435 4.99715C55.5671 5.77876 55.7071 6.60679 55.7838 7.43414L55.7839 7.43526L55.784 7.43612C56.2242 12.342 56.6643 17.2478 57.0547 22.146C57.1361 23.21 57.0388 24.3077 56.8495 25.3403C56.6065 26.7219 55.8571 27.4132 54.8284 27.5307C53.7997 27.6482 52.9497 27.0684 52.493 25.7222C52.1746 24.8055 51.8783 23.8106 51.8099 22.8609C51.4124 16.6134 51.0579 10.3522 50.7318 4.10549C50.6964 3.40588 50.783 2.64334 51.0537 2.01119C51.7056 0.426977 53.4837 0.281752 54.403 1.73993C54.6246 2.1031 54.7715 2.52817 54.9339 2.99812L54.9339 2.99825C55.0284 3.27173 55.1281 3.56041 55.2509 3.86093Z" fill="black"/>
</svg>
