<svg width="81" height="82" viewBox="0 0 81 82" fill="none" xmlns="http://www.w3.org/2000/svg">
<g opacity="0.5">
<rect x="6.52294" y="12.9321" width="68.1053" height="68.1053" rx="18" transform="rotate(-4.38258 6.52294 12.9321)" fill="black" stroke="black" stroke-width="4"/>
<rect x="0.853016" y="6.45165" width="68.1053" height="68.1053" rx="18" transform="rotate(-4.38258 0.853016 6.45165)" fill="white" stroke="black" stroke-width="4"/>
<path d="M26.5632 51.7754C26.4514 51.6795 26.3835 51.4757 26.3596 51.1641C26.3179 50.6189 26.3359 50.3432 26.4138 50.3373C26.6215 50.3213 26.9162 50.2465 27.2977 50.1128C27.6792 49.9791 28.0328 49.8214 28.3584 49.6398C28.684 49.4581 28.8678 49.3004 28.9098 49.1665C28.9858 48.7951 29.0169 48.3487 29.003 47.8274C29.0151 47.3041 28.9953 46.7049 28.9436 46.0298L27.7974 31.0736C27.67 29.4119 27.4885 28.4072 27.253 28.0596C27.1631 27.9097 26.9444 27.7828 26.5969 27.6789C26.2734 27.547 25.9389 27.442 25.5934 27.364C25.2479 27.286 24.9713 27.255 24.7635 27.2709C24.6597 27.2789 24.5908 27.0622 24.557 26.6207C24.5212 26.1534 24.5272 25.8917 24.5752 25.8358L30.2406 25.6367C30.5022 25.6427 31.0855 25.585 31.9903 25.4634C32.8951 25.3418 34.1235 25.1824 35.6755 24.9851C35.7713 25.2128 35.8281 25.4435 35.846 25.6772C35.8838 26.1705 35.8508 26.4212 35.7469 26.4292C35.5912 26.4411 35.3225 26.5139 34.941 26.6476C34.5595 26.7813 34.1929 26.94 33.8413 27.1237C33.5137 27.2794 33.3289 27.4241 33.2869 27.5579C33.1549 28.221 33.1486 29.3315 33.268 30.8894L33.7397 37.0433C33.7556 37.251 33.8414 37.3489 33.9972 37.3369L34.3088 37.3131C34.4646 37.3011 34.998 36.764 35.9091 35.7017C36.9381 34.4736 37.988 33.1787 39.059 31.8168C40.1539 30.427 41.2698 28.9703 42.4067 27.4467C42.5925 27.1451 42.6735 26.8386 42.6496 26.527C42.6357 26.3452 42.4829 26.2263 42.1913 26.1703C41.9237 26.0864 41.6062 26.0323 41.2387 26.0083C40.8712 25.9842 40.5446 25.9831 40.259 26.005C40.1551 26.013 40.0633 25.8372 39.9835 25.4776C39.9037 25.1181 39.8828 24.8455 39.9208 24.6597C42.8149 24.5946 44.5606 24.5392 45.1578 24.4934C45.4694 24.4695 47.1771 24.2603 50.2811 23.8657C50.3409 23.9656 50.3728 24.2113 50.3767 24.6027C50.4066 24.9922 50.3835 25.2029 50.3076 25.2349L50.0769 25.2917C49.8173 25.3116 49.5336 25.3595 49.226 25.4353C48.9424 25.4832 48.6728 25.543 48.4171 25.6148C48.0855 25.7186 47.644 25.9222 47.0927 26.2256C46.5653 26.5011 46.1718 26.8186 45.912 27.178L39.7801 35.0916C39.4943 35.453 39.5102 35.8305 39.8277 36.2241L49.9808 47.5517C50.2923 47.8673 50.7526 48.0802 51.3617 48.1902C51.9969 48.2982 52.4702 48.3403 52.7818 48.3164C52.8857 48.3085 52.9565 48.5512 52.9943 49.0445C53.0162 49.3301 52.9822 49.5678 52.8922 49.7575L50.4266 49.7898C49.6176 49.7995 48.9266 49.8133 48.3533 49.8311C47.7801 49.8489 47.3247 49.8708 46.9872 49.8967C46.2861 49.9504 45.4702 50.039 44.5394 50.1626C43.6346 50.2842 42.6149 50.4407 41.4804 50.6321C41.3686 50.5362 41.2957 50.2676 41.2619 49.8261C41.2301 49.4107 41.2661 49.199 41.3699 49.191C41.6556 49.1691 42.0261 49.0624 42.4815 48.8708C42.937 48.6792 43.1567 48.4795 43.1408 48.2718C43.0751 47.4149 40.5324 44.567 35.5125 39.7281C35.4286 39.6562 35.2439 39.6312 34.9583 39.6531C34.2832 39.7048 33.9625 39.9514 33.9964 40.3928L34.3725 45.3003C34.4282 46.0273 34.5039 46.6745 34.5996 47.2417C34.6953 47.809 34.811 48.2964 34.9467 48.7039C35.0066 48.8038 35.1983 48.9197 35.5219 49.0516C35.8714 49.1815 36.2328 49.2974 36.6063 49.3994C37.0038 49.4734 37.2804 49.5045 37.4362 49.4925C37.54 49.4846 37.6109 49.7272 37.6487 50.2206C37.6686 50.4802 37.6605 50.7159 37.6245 50.9276C37.5206 50.9356 37.273 50.9415 36.8815 50.9454C36.49 50.9493 35.9548 50.9511 35.2757 50.9509C34.5966 50.9507 33.9964 50.9576 33.4751 50.9714C32.9538 50.9852 32.5244 51.0051 32.1868 51.031C31.7194 51.0668 31.0853 51.1415 30.2843 51.2551C29.4834 51.3687 28.7204 51.4664 27.9953 51.5481C27.2982 51.6537 26.8209 51.7295 26.5632 51.7754Z" fill="black"/>
</g>
</svg>
