<svg width="81" height="83" viewBox="0 0 81 83" fill="none" xmlns="http://www.w3.org/2000/svg">
<g opacity="0.5">
<rect x="11.7409" y="8.14456" width="68.1053" height="68.1053" rx="18" transform="rotate(4.85474 11.7409 8.14456)" fill="black" stroke="black" stroke-width="4"/>
<rect x="7.18425" y="0.837915" width="68.1053" height="68.1053" rx="18" transform="rotate(4.85474 7.18425 0.837915)" fill="white" stroke="black" stroke-width="4"/>
<path d="M33.4981 50.3975C33.4031 50.2849 33.3688 50.0729 33.3953 49.7616C33.4415 49.2167 33.5036 48.9475 33.5815 48.9541C33.789 48.9717 34.0919 48.9452 34.4899 48.8745C34.8879 48.8037 35.2622 48.7048 35.6128 48.5778C35.9633 48.4508 36.1701 48.3246 36.233 48.1992C36.3676 47.8448 36.47 47.4092 36.54 46.8924C36.636 46.3779 36.7126 45.7832 36.7699 45.1086L38.0393 30.1624C38.1804 28.5017 38.1626 27.4809 37.9858 27.1C37.9212 26.9377 37.7257 26.7774 37.3994 26.619C37.1013 26.4368 36.7879 26.2796 36.4594 26.1471C36.1309 26.0147 35.8629 25.9396 35.6553 25.922C35.5515 25.9132 35.5183 25.6882 35.5558 25.2471C35.5955 24.78 35.6435 24.5227 35.6998 24.4753L37.5581 24.7507C38.1246 24.8511 38.5883 24.9297 38.9494 24.9865C39.3105 25.0433 39.6597 25.086 39.997 25.1147C40.3625 25.1196 40.8047 25.1441 41.3237 25.1881C41.8426 25.2322 43.6656 25.3086 46.7926 25.4174C46.8506 25.6576 46.8697 25.8944 46.8499 26.1279C46.808 26.621 46.7352 26.8631 46.6314 26.8542C46.4757 26.841 46.1988 26.8698 45.8008 26.9405C45.4028 27.0112 45.0155 27.109 44.639 27.2339C44.2906 27.335 44.085 27.4482 44.0221 27.5735C43.9178 27.8783 43.8155 28.3139 43.7151 28.8803C43.6169 29.4208 43.5513 29.8857 43.5182 30.2749L42.2455 45.26C42.1838 45.9866 42.1546 46.6375 42.158 47.2128C42.1614 47.788 42.1974 48.2877 42.2659 48.7116C42.309 48.8199 42.4796 48.965 42.7778 49.1472C43.1019 49.3315 43.4401 49.504 43.7923 49.6646C44.1727 49.8014 44.4408 49.8764 44.5965 49.8897C44.7003 49.8985 44.7312 50.1494 44.6894 50.6424C44.6673 50.9019 44.6215 51.1332 44.552 51.3364C44.4482 51.3276 44.2028 51.2937 43.8158 51.2347C43.4288 51.1757 42.9001 51.0916 42.2299 50.9824C41.5596 50.8732 40.9661 50.7836 40.4494 50.7135C39.9326 50.6435 39.5056 50.5942 39.1682 50.5655C38.7012 50.5258 38.0632 50.4978 37.2544 50.4814C36.4456 50.465 35.6769 50.4389 34.9481 50.4031C34.2431 50.3955 33.7597 50.3936 33.4981 50.3975Z" fill="black"/>
</g>
</svg>
