<svg width="82" height="83" viewBox="0 0 82 83" fill="none" xmlns="http://www.w3.org/2000/svg">
<g opacity="0.5">
<rect x="6.61952" y="14.3057" width="68.1053" height="68.1053" rx="18" transform="rotate(-5.58543 6.61952 14.3057)" fill="black" stroke="black" stroke-width="4"/>
<rect x="0.814836" y="7.94634" width="68.1053" height="68.1053" rx="18" transform="rotate(-5.58543 0.814836 7.94634)" fill="white" stroke="black" stroke-width="4"/>
<path d="M24.341 53.0265C24.2271 52.933 24.1538 52.7178 24.1208 52.3808C24.0727 51.8884 24.0875 51.6384 24.1652 51.6308C24.4762 51.6003 24.9209 51.4653 25.4993 51.2255C26.1036 50.9833 26.651 50.6943 27.1414 50.3585C27.6553 49.9942 27.9075 49.6294 27.8979 49.264L27.8709 47.3827C27.7023 42.7155 27.4931 38.8373 27.2433 35.7479C26.9935 32.6586 26.8581 30.6048 26.837 29.5864C26.8091 29.3013 26.7474 29.0718 26.6519 28.898C26.5849 28.7475 26.3519 28.6395 25.953 28.5738C25.5516 28.4823 25.1267 28.4192 24.6785 28.3845C24.2562 28.3473 23.9285 28.3401 23.6952 28.3629C23.5915 28.373 23.5131 28.106 23.4598 27.5617C23.432 27.2766 23.4648 27.0771 23.5583 26.9633C23.8175 26.938 24.2088 26.9259 24.7322 26.927C25.2791 26.8997 25.8531 26.8828 26.4542 26.8764C27.0788 26.8415 27.6114 26.8025 28.052 26.7594C28.4149 26.7239 28.8672 26.6666 29.4089 26.5874C29.974 26.4798 30.5145 26.3877 31.0303 26.3111C31.5436 26.2086 31.9039 26.1472 32.1113 26.1269C32.2814 26.5289 32.6852 27.3137 33.3227 28.4811C33.9861 29.646 34.8832 31.1937 36.014 33.124C37.1472 35.0803 38.1411 36.8147 38.9955 38.3273C39.8474 39.8139 40.5493 41.1059 41.1015 42.2032L41.1792 42.1956C41.2311 42.1905 41.2557 42.1751 41.2532 42.1491C41.9973 39.5906 42.6709 37.2483 43.2742 35.1222C43.8774 32.9961 44.3855 31.1017 44.7986 29.439L45.6557 24.9593C45.8915 24.9624 46.2698 24.9516 46.7907 24.9268C47.335 24.8736 48.0089 24.8077 48.8123 24.7291L53.688 24.0168C53.8044 24.1363 53.8765 24.3386 53.9044 24.6237C53.9576 25.1679 53.9194 25.4464 53.7898 25.4591L53.751 25.4629C53.103 25.5262 52.5739 25.735 52.1637 26.0891C51.7769 26.4147 51.6475 26.9638 51.7753 27.7363L54.1497 43.9886C54.3795 45.5361 54.6905 46.7093 55.0826 47.5082C55.1756 47.6562 55.3722 47.7939 55.6725 47.9215C55.9988 48.0466 56.3367 48.1575 56.6863 48.2541C57.0334 48.3249 57.2846 48.3526 57.4402 48.3374C57.5438 48.3273 57.621 48.5814 57.6717 49.0997C57.6945 49.333 57.6901 49.5558 57.6586 49.7683C57.4746 49.7601 57.0691 49.7605 56.442 49.7695C55.8174 49.8044 55.1527 49.8302 54.4479 49.8468C53.743 49.8634 53.1573 49.8945 52.6908 49.9401C52.2243 49.9857 51.5918 50.0737 50.7934 50.2041C49.995 50.3346 49.2342 50.4482 48.5111 50.5451C47.8164 50.6654 47.3407 50.7511 47.084 50.8024C46.9418 50.6855 46.8567 50.4845 46.8288 50.1994C46.7756 49.6551 46.7878 49.3791 46.8656 49.3715C47.0729 49.3513 47.34 49.2728 47.6668 49.1362C47.9911 48.9737 48.3011 48.7994 48.5969 48.6135C48.9161 48.3991 49.107 48.2104 49.1695 48.0473C49.3363 47.6123 49.4045 47.2393 49.3741 46.9283C49.3462 46.6432 49.3003 46.3075 49.2364 45.9213C49.1983 45.5325 49.1436 45.1061 49.072 44.6422L47.7953 34.7978C47.5218 33.0714 47.3332 32.2133 47.2296 32.2235C47.1777 32.2285 47.1218 32.3256 47.0618 32.5146L41.9747 49.9283C41.8964 50.1977 41.7169 50.503 41.4363 50.8445C41.1532 51.16 40.8561 51.3329 40.5451 51.3634C40.5192 51.3659 40.4 51.3514 40.1876 51.3198L29.7565 32.951L30.5593 47.9833C30.5948 48.3461 30.6239 48.6442 30.6468 48.8775C30.6696 49.1107 30.699 49.2779 30.7351 49.3791C30.8021 49.5295 31 49.6802 31.3288 49.8312C31.6834 49.9797 32.0887 50.1102 32.5445 50.2226C33.0003 50.335 33.4277 50.424 33.8266 50.4897C34.2514 50.5528 34.5416 50.5768 34.6971 50.5616C34.8008 50.5514 34.8779 50.8055 34.9286 51.3239C34.9514 51.5571 34.9471 51.78 34.9155 51.9924C33.3604 52.1445 32.1799 52.2468 31.3739 52.2995C30.5938 52.3496 30.0341 52.3782 29.6946 52.3852C29.3551 52.3923 29.1076 52.4034 28.9521 52.4186C28.7941 52.4079 28.5984 52.4139 28.3652 52.4367C28.1319 52.4596 27.7185 52.5131 27.1249 52.5973C26.5313 52.6815 25.6033 52.8246 24.341 53.0265Z" fill="black"/>
</g>
</svg>
