<svg width="81" height="83" viewBox="0 0 81 83" fill="none" xmlns="http://www.w3.org/2000/svg">
<g opacity="0.5">
<rect x="11.7409" y="8.14456" width="68.1053" height="68.1053" rx="18" transform="rotate(4.85474 11.7409 8.14456)" fill="black" stroke="black" stroke-width="4"/>
<rect x="7.18425" y="0.837915" width="68.1053" height="68.1053" rx="18" transform="rotate(4.85474 7.18425 0.837915)" fill="white" stroke="black" stroke-width="4"/>
<path d="M25.3244 49.7033C25.2294 49.5907 25.1962 49.3657 25.2249 49.0284C25.269 48.5095 25.3429 48.2544 25.4467 48.2632C25.6543 48.2808 25.956 48.2672 26.3518 48.2225C26.7476 48.1777 27.1197 48.1047 27.4681 48.0036C27.8186 47.8766 28.0254 47.7504 28.0883 47.6251C28.2947 47.0415 28.4695 45.9064 28.6127 44.2198L29.8623 29.5071C29.9858 28.054 29.9939 27.0354 29.8867 26.4513C29.848 26.2912 29.6536 26.1179 29.3036 25.9314C28.9817 25.7211 28.6305 25.5475 28.2501 25.4107C27.8719 25.2479 27.579 25.1576 27.3714 25.14C27.2676 25.1312 27.2356 24.8932 27.2752 24.4262C27.3105 24.011 27.3704 23.7678 27.4548 23.6966C28.4883 23.8366 29.47 23.9723 30.3997 24.1035C31.3576 24.211 32.2776 24.3022 33.1599 24.3771C34.3016 24.4741 36.3159 24.606 39.2028 24.7728C40.6581 24.8703 41.9306 24.9653 43.0205 25.0578C44.1125 25.1244 45.0218 25.1886 45.7483 25.2503C45.7633 25.3823 45.8208 25.936 45.9209 26.9115C46.021 27.887 46.1766 29.2854 46.3878 31.1067C46.2471 31.2254 45.9431 31.2649 45.4761 31.2253C45.1906 31.201 45.0167 31.0948 44.9543 30.9065C44.7002 30.2054 44.2838 29.569 43.7052 28.9971C43.1546 28.4015 42.5293 27.9172 41.8292 27.5441C41.1573 27.1472 40.484 26.9202 39.8093 26.8629L38.3303 26.7372C36.6696 26.5962 35.8119 26.6932 35.7573 27.0284C35.679 27.3353 35.5918 27.7461 35.4959 28.2606C35.428 28.7515 35.3644 29.3472 35.3049 30.0478L34.7958 36.0418C34.7825 36.1975 35.3338 36.3227 36.4496 36.4175L38.5125 36.5927C40.1472 36.7316 41.0339 36.7546 41.1724 36.6618C41.3132 36.5431 41.4489 36.1757 41.5797 35.5595C41.6668 35.1487 41.7766 34.7791 41.9091 34.4506C41.9504 34.2712 42.1528 34.1969 42.516 34.2277C42.9572 34.2652 43.2371 34.3543 43.3558 34.4951L42.731 41.8514C42.6184 41.9464 42.3415 41.9751 41.9004 41.9377C41.5631 41.909 41.3643 41.7876 41.3041 41.5734C41.0787 40.535 40.924 39.8946 40.84 39.6522C40.7517 39.4618 40.6804 39.3773 40.6263 39.3989C40.6004 39.3967 40.5269 39.3381 40.406 39.2233C40.0604 38.9849 39.0572 38.7951 37.3965 38.6541C35.5282 38.4954 34.5842 38.5328 34.5644 38.7664L34.0553 44.7604C33.9517 45.98 33.9772 46.91 34.1319 47.5504C34.2004 47.9743 35.0651 48.2569 36.7257 48.3979L37.7377 48.4839C39.3465 48.6205 40.8283 48.4066 42.183 47.8421C42.6439 47.6461 43.1744 47.2468 43.7744 46.6444C44.4004 46.0442 44.9032 45.3551 45.2829 44.5771C45.348 44.4259 45.5363 44.3634 45.8477 44.3899C46.4704 44.4428 46.853 44.5537 46.9955 44.7226C45.394 48.1933 44.5038 50.3653 44.3251 51.2387C43.6764 51.1836 42.8212 51.0979 41.7595 50.9816C40.7216 50.8935 39.4772 50.7747 38.0263 50.6253C36.6013 50.4782 35.3061 50.342 34.1407 50.2169C32.9774 50.0658 31.9395 49.9777 31.0269 49.9524L25.3244 49.7033Z" fill="black"/>
</g>
</svg>
